<svg xmlns="http://www.w3.org/2000/svg" width="1024" height="1024" viewBox="0 0 1024 1024">
<g>
<path d="M 547.00 934.54 C465.42,941.22 381.52,924.30 313.87,887.53 C220.00,836.52 146.74,752.72 109.21,653.47 C90.47,603.93 82.68,559.11 82.62,500.50 C82.58,469.21 83.72,456.81 89.59,424.50 C96.41,387.04 106.64,354.78 122.27,321.50 C147.01,268.84 177.80,226.26 216.86,190.69 C251.89,158.79 289.06,133.17 324.77,116.33 C398.96,81.33 484.86,68.03 565.00,79.13 C652.40,91.23 728.49,126.09 796.00,184.98 C871.11,250.50 919.83,341.65 934.43,444.00 C940.42,486.03 940.42,517.14 934.41,560.97 C922.24,649.78 881.63,735.14 820.00,801.50 C782.33,842.07 726.90,880.99 676.27,902.44 C631.80,921.29 593.88,930.70 547.00,934.54 ZM 476.50 903.89 C492.67,905.11 511.11,905.13 532.00,903.96 C568.82,901.89 602.57,894.95 637.00,882.36 C650.01,877.60 679.10,863.98 690.13,857.48 C693.63,855.42 698.53,852.60 701.00,851.22 C704.93,849.03 722.83,837.34 730.00,832.29 C743.78,822.58 766.97,803.05 779.03,791.02 C813.11,756.98 835.41,726.48 857.45,683.73 C880.23,639.53 892.46,597.40 898.15,543.50 C900.18,524.16 899.67,479.10 897.16,457.50 C893.19,423.24 885.15,390.45 873.28,360.00 C864.77,338.18 841.93,294.32 834.75,286.00 C833.79,284.89 833.00,283.76 833.00,283.48 C833.00,282.13 818.19,261.95 812.10,255.00 C810.41,253.07 808.01,250.28 806.76,248.79 C798.84,239.31 794.84,235.00 780.50,220.52 C765.64,205.52 741.74,185.00 739.13,185.00 C738.51,185.00 738.00,184.55 738.00,184.00 C738.00,183.45 737.52,183.00 736.92,183.00 C736.33,183.00 734.59,181.76 733.06,180.25 C731.52,178.74 728.52,176.60 726.38,175.50 C724.25,174.40 721.63,172.71 720.56,171.75 C719.50,170.79 718.03,170.00 717.31,170.00 C716.59,170.00 716.00,169.58 716.00,169.07 C716.00,164.89 633.82,126.14 629.97,128.52 C629.44,128.85 629.00,128.73 629.00,128.25 C629.00,127.35 619.45,124.42 617.25,124.65 C616.56,124.72 616.00,124.43 616.00,124.00 C616.00,123.30 610.34,121.70 607.32,121.54 C606.67,121.50 605.84,121.17 605.47,120.81 C605.11,120.44 604.17,120.38 603.40,120.68 C602.63,120.97 602.00,120.74 602.00,120.17 C602.00,119.09 593.88,117.35 590.75,117.75 C589.79,117.88 589.00,117.48 589.00,116.87 C589.00,116.26 588.11,116.00 587.00,116.29 C585.90,116.58 584.73,116.37 584.39,115.82 C584.05,115.27 582.93,115.05 581.89,115.32 C580.85,115.59 579.73,115.38 579.41,114.85 C579.08,114.32 577.50,114.17 575.90,114.52 C574.15,114.91 573.00,114.75 573.00,114.12 C573.00,113.09 571.44,112.90 563.25,112.94 C560.91,112.95 559.00,112.50 559.00,111.94 C559.00,111.38 557.31,110.93 555.25,110.94 C553.19,110.95 548.80,110.74 545.50,110.46 C513.76,107.82 487.99,108.15 460.75,111.53 C458.69,111.79 455.31,112.19 453.25,112.43 C451.19,112.66 448.15,113.08 446.50,113.35 C444.85,113.62 441.92,114.05 440.00,114.31 C433.80,115.15 423.54,117.07 422.00,117.67 C421.17,118.00 419.60,118.39 418.50,118.54 C411.92,119.44 382.25,128.28 368.36,133.47 C328.90,148.22 281.90,176.01 255.50,200.20 C254.40,201.21 248.32,206.71 242.00,212.43 C231.63,221.81 209.81,244.84 207.64,248.69 C207.16,249.54 206.04,251.02 205.14,251.99 C204.24,252.97 202.60,254.97 201.50,256.44 C200.40,257.92 198.71,259.87 197.75,260.79 C196.79,261.70 196.00,262.81 196.00,263.27 C196.00,263.72 194.87,265.31 193.48,266.79 C192.09,268.28 190.41,270.74 189.74,272.25 C189.06,273.76 188.24,275.00 187.90,275.00 C187.06,275.00 180.00,285.71 180.00,286.98 C180.00,287.54 179.52,288.00 178.94,288.00 C178.36,288.00 178.14,288.41 178.45,288.91 C178.76,289.42 178.62,289.98 178.14,290.16 C176.88,290.65 169.67,302.18 169.67,303.71 C169.67,304.42 169.29,305.00 168.83,305.00 C168.38,305.00 168.00,305.64 168.00,306.42 C168.00,307.20 167.62,307.98 167.15,308.17 C166.04,308.60 148.67,343.79 148.67,345.61 C148.67,346.37 148.34,347.00 147.94,347.00 C147.54,347.00 146.87,348.24 146.44,349.75 C145.39,353.46 145.61,352.90 143.11,358.47 C141.89,361.20 139.91,366.83 138.71,370.97 C137.51,375.11 136.15,378.78 135.68,379.11 C135.21,379.45 134.90,379.90 134.98,380.11 C135.06,380.33 134.91,381.17 134.64,382.00 C126.52,407.05 120.54,435.05 117.41,462.67 C115.65,478.22 114.93,518.65 116.16,533.50 C116.53,537.90 117.09,544.99 117.42,549.26 C117.99,556.57 124.36,593.75 125.60,597.00 C125.92,597.83 126.39,599.62 126.64,601.00 C129.05,613.94 138.36,641.90 146.28,660.00 C152.89,675.07 162.98,695.22 164.44,696.23 C165.02,696.64 165.13,696.98 164.68,696.98 C164.23,696.99 164.56,697.71 165.43,698.57 C166.29,699.44 167.00,700.79 167.00,701.57 C167.00,702.36 167.48,703.00 168.06,703.00 C168.64,703.00 168.84,703.45 168.50,704.00 C168.16,704.55 168.31,705.00 168.83,705.00 C169.36,705.00 170.04,706.02 170.35,707.27 C170.67,708.52 171.86,710.54 173.00,711.77 C174.14,713.00 174.82,714.00 174.50,714.00 C173.74,714.00 182.13,726.40 183.18,726.83 C183.63,727.02 184.00,727.60 184.00,728.13 C184.00,728.65 184.90,730.05 186.00,731.23 C187.10,732.41 188.00,733.97 188.00,734.69 C188.00,735.41 188.45,736.00 189.00,736.00 C189.55,736.00 190.00,736.50 190.00,737.11 C190.00,738.40 195.86,746.13 197.72,747.30 C198.43,747.74 199.00,748.56 199.00,749.13 C199.00,750.16 204.32,757.24 208.66,762.00 C209.91,763.38 212.64,766.50 214.72,768.95 C231.69,788.91 253.40,809.47 276.02,827.00 C303.10,847.99 344.09,870.38 377.65,882.53 C407.58,893.36 445.42,901.54 476.50,903.89 ZM 517.74 896.04 C511.07,897.27 503.33,896.96 499.20,895.29 C497.55,894.62 494.95,893.85 493.43,893.57 C491.91,893.30 490.39,892.63 490.06,892.10 C489.73,891.56 488.34,890.91 486.98,890.65 C483.37,889.96 481.00,888.90 481.00,887.97 C481.00,887.53 479.54,886.84 477.76,886.45 C475.99,886.06 473.51,885.07 472.26,884.25 C471.02,883.44 469.99,883.16 469.98,883.64 C469.98,884.11 469.62,883.94 469.18,883.26 C468.75,882.58 465.97,881.56 463.00,881.00 C460.03,880.44 457.35,879.56 457.03,879.06 C456.39,878.01 433.80,870.11 430.00,869.60 C428.62,869.41 426.83,869.04 426.00,868.76 C425.17,868.48 415.95,865.47 405.50,862.08 C395.05,858.68 382.92,854.34 378.54,852.43 C374.16,850.52 369.47,848.76 368.12,848.52 C366.77,848.27 365.40,847.72 365.08,847.29 C364.36,846.31 353.31,841.00 352.00,841.00 C351.47,841.00 348.09,839.20 344.50,837.00 C340.91,834.80 337.45,833.00 336.81,833.00 C336.18,833.00 334.95,832.40 334.08,831.68 C331.09,829.17 310.03,816.00 309.02,816.00 C308.46,816.00 308.00,815.55 308.00,815.00 C308.00,814.45 307.33,814.00 306.50,814.00 C305.67,814.00 305.00,813.66 305.00,813.25 C305.00,812.84 301.96,810.26 298.25,807.52 C259.15,778.66 231.19,748.95 202.25,705.50 C182.98,676.58 165.57,639.15 157.48,609.28 C156.03,603.90 154.42,599.07 153.92,598.55 C153.41,598.03 152.99,596.45 152.99,595.05 C152.98,593.65 151.84,586.88 150.46,580.00 C144.47,550.21 142.55,527.68 143.31,496.04 C144.05,465.04 147.21,442.28 155.17,410.56 C164.61,372.94 180.44,336.62 201.23,304.86 C232.37,257.29 266.78,223.26 313.00,194.32 C322.52,188.36 325.67,186.55 326.51,183.99 C326.98,182.54 326.72,180.86 326.44,178.06 C325.88,172.30 326.06,171.17 327.95,168.78 C331.95,163.71 338.54,163.03 357.80,165.68 L 370.10 167.38 L 378.45 164.66 C388.93,161.25 389.58,160.54 387.96,154.20 C385.04,142.84 389.37,138.38 403.00,138.69 C410.25,138.86 423.18,141.25 433.50,144.34 C441.20,146.64 446.38,147.22 452.45,146.46 L 458.00 145.77 L 458.00 140.95 C458.00,134.21 459.30,131.44 463.08,130.12 C468.36,128.28 473.58,128.81 492.50,133.08 C502.40,135.32 513.42,137.80 517.00,138.61 C529.52,141.44 541.64,143.35 543.19,142.76 C544.19,142.37 545.39,139.36 546.46,134.52 C548.04,127.45 548.41,126.77 551.64,125.23 C554.90,123.68 555.56,123.68 561.81,125.32 C572.06,127.99 591.35,138.04 598.63,144.50 C599.25,145.05 600.76,146.18 601.99,147.00 C603.22,147.82 605.21,149.25 606.40,150.16 C607.60,151.07 614.19,153.71 621.04,156.04 C627.89,158.36 636.74,161.54 640.70,163.10 C651.53,167.37 680.72,182.22 692.29,189.33 C697.91,192.79 703.62,196.26 705.00,197.06 C706.38,197.85 707.72,198.74 708.00,199.03 C708.28,199.33 711.65,201.78 715.50,204.49 C726.62,212.31 735.68,219.39 747.32,229.37 C753.42,234.59 778.45,259.54 782.72,264.65 C784.48,266.77 787.18,270.01 788.72,271.85 C790.25,273.69 792.29,275.93 793.25,276.82 C794.21,277.71 795.00,278.97 795.00,279.62 C795.00,280.26 795.67,281.05 796.50,281.36 C797.33,281.68 798.00,282.63 798.00,283.47 C798.00,284.31 798.46,285.00 799.03,285.00 C799.60,285.00 800.36,285.79 800.72,286.75 C801.53,288.91 811.17,302.38 812.23,302.83 C812.65,303.02 813.00,303.58 813.00,304.09 C813.00,304.60 816.18,310.30 820.08,316.76 C823.97,323.22 829.82,333.90 833.08,340.50 C836.34,347.10 839.56,353.16 840.25,353.98 C840.94,354.79 841.36,355.46 841.19,355.48 C840.76,355.51 841.05,356.37 847.51,373.80 C853.78,390.69 857.81,402.91 858.64,407.50 C858.94,409.15 859.59,410.99 860.09,411.59 C860.58,412.19 860.72,412.95 860.39,413.28 C860.07,413.60 860.17,414.46 860.62,415.18 C861.56,416.68 861.84,417.88 862.60,423.48 C862.90,425.68 863.50,427.93 863.94,428.48 C864.37,429.04 864.78,430.17 864.83,431.00 C864.89,431.83 865.21,433.85 865.54,435.50 C865.88,437.15 866.28,439.62 866.45,441.00 C866.61,442.38 866.87,443.73 867.03,444.00 C867.18,444.27 867.43,445.62 867.58,447.00 C867.72,448.38 868.12,451.52 868.45,454.00 C870.71,470.80 871.10,478.05 871.18,505.50 C871.23,520.35 870.94,535.42 870.54,539.00 C870.13,542.58 869.62,547.30 869.39,549.50 C868.86,554.72 866.51,569.22 865.09,576.09 C864.47,579.06 863.77,582.85 863.53,584.50 C863.29,586.15 862.82,588.62 862.49,590.00 C862.16,591.38 861.78,592.95 861.66,593.50 C861.54,594.05 861.18,594.95 860.85,595.50 C860.33,596.38 857.86,605.86 857.46,608.50 C857.37,609.05 857.18,609.84 857.03,610.25 C856.87,610.66 856.65,611.34 856.54,611.75 C856.42,612.16 856.04,613.17 855.69,614.00 C855.34,614.83 853.65,619.78 851.93,625.00 C845.11,645.74 835.97,666.02 824.34,686.28 C820.30,693.30 817.00,699.45 817.00,699.94 C817.00,700.43 816.63,700.98 816.17,701.17 C815.01,701.63 803.00,719.69 803.00,720.96 C803.00,721.53 802.64,722.00 802.19,722.00 C801.32,722.00 795.00,730.60 795.00,731.79 C795.00,732.19 794.10,733.08 793.00,733.77 C791.90,734.45 791.00,735.44 791.00,735.96 C791.00,736.48 789.99,738.00 788.75,739.33 C787.51,740.66 785.15,743.34 783.50,745.27 C767.26,764.31 756.10,775.28 737.00,790.97 C732.88,794.36 728.22,798.23 726.65,799.57 C725.08,800.90 723.49,802.00 723.12,802.00 C722.75,802.00 721.70,802.79 720.79,803.75 C718.54,806.14 716.21,808.00 715.48,808.00 C714.65,808.00 707.58,813.31 707.17,814.25 C706.98,814.66 706.44,815.00 705.96,815.00 C705.49,815.00 702.26,816.95 698.80,819.34 C695.33,821.72 689.58,825.41 686.00,827.53 C682.42,829.64 679.28,831.66 679.00,832.01 C678.00,833.27 641.27,850.92 632.40,854.41 C621.24,858.79 602.10,865.63 570.19,876.65 C556.82,881.27 543.99,885.87 541.69,886.89 C539.39,887.90 534.31,890.14 530.41,891.87 C526.51,893.60 520.81,895.47 517.74,896.04 ZM 495.86 877.64 C506.61,882.33 512.12,882.23 523.99,877.11 C534.76,872.47 544.64,866.71 553.46,859.96 C560.53,854.54 561.00,854.32 561.00,856.43 C561.00,857.22 561.43,859.01 561.96,860.39 L 562.92 862.92 L 568.21 861.36 C583.58,856.83 601.34,845.82 614.97,832.36 C620.19,827.21 624.53,823.00 624.61,823.00 C624.70,823.00 625.07,825.37 625.43,828.26 C626.49,836.78 627.00,837.01 633.67,831.93 C642.40,825.29 658.36,809.55 664.52,801.52 C670.97,793.10 678.16,780.74 681.26,772.75 C682.49,769.59 683.78,767.00 684.13,767.00 C684.48,767.00 686.02,768.69 687.55,770.75 C689.09,772.81 690.49,774.68 690.67,774.91 C691.61,776.12 695.27,770.90 697.86,764.64 C704.30,749.08 709.03,720.04 709.72,691.75 C710.02,679.79 710.46,670.00 710.70,670.00 C710.95,670.00 713.16,671.18 715.62,672.62 C718.08,674.06 720.33,675.01 720.62,674.72 C720.90,674.43 719.53,665.26 717.56,654.35 C708.16,602.16 706.88,591.65 706.28,561.75 C705.98,546.49 705.34,534.00 704.86,534.00 C704.39,534.00 704.00,534.65 704.00,535.45 C704.00,536.25 702.27,540.19 700.16,544.20 C696.78,550.63 696.25,552.62 695.66,560.88 C694.80,573.19 690.56,593.57 686.88,603.14 C685.26,607.35 682.17,613.52 680.01,616.86 C674.52,625.36 662.38,637.75 651.09,646.39 C645.44,650.72 641.66,654.30 641.88,655.12 C642.09,655.88 642.48,662.12 642.74,669.00 C643.93,700.04 632.54,726.09 616.65,728.67 C611.58,729.49 610.35,728.04 609.00,719.69 C607.60,710.96 605.01,701.12 603.94,700.46 C603.51,700.19 602.22,701.29 601.08,702.89 C595.48,710.75 580.63,716.75 569.50,715.65 C559.01,714.61 553.44,712.04 541.96,702.94 C539.59,701.06 537.61,700.90 512.20,700.49 C497.22,700.26 483.96,700.45 482.73,700.92 C481.51,701.39 477.67,704.05 474.20,706.82 C466.05,713.36 459.92,715.44 449.00,715.39 C437.25,715.34 430.45,712.61 422.68,704.84 C419.47,701.63 416.72,699.00 416.58,699.00 C415.97,699.00 413.55,708.23 411.60,718.00 L 409.50 728.50 L 405.62 728.82 C400.18,729.26 396.86,727.60 391.16,721.58 C383.35,713.31 378.15,701.13 375.91,685.81 C374.81,678.28 375.16,663.56 376.59,657.00 C377.07,654.82 376.32,653.91 370.94,650.12 C345.63,632.27 330.96,606.87 325.50,571.47 C324.57,565.44 323.14,558.25 322.31,555.50 C320.45,549.30 316.67,540.04 316.00,540.02 C315.73,540.01 315.47,547.99 315.44,557.75 C315.37,578.20 314.15,588.65 306.43,635.20 C303.44,653.18 301.00,668.85 301.00,670.03 L 301.00 672.16 L 304.55 669.97 C306.51,668.76 308.37,668.04 308.70,668.37 C309.03,668.70 309.65,678.99 310.08,691.23 C310.86,713.36 311.73,721.54 314.59,734.00 C317.01,744.54 324.90,769.89 327.10,774.20 L 329.14 778.19 L 332.28 774.09 C334.01,771.84 335.67,770.01 335.96,770.01 C336.26,770.02 337.73,773.07 339.24,776.79 C347.46,797.12 369.70,820.31 392.25,832.06 L 400.00 836.10 L 400.00 831.55 C400.00,829.05 400.27,827.00 400.60,827.00 C400.93,827.00 404.28,829.85 408.05,833.34 C417.23,841.84 427.86,849.05 441.71,856.19 C454.95,863.01 458.31,863.44 458.81,858.34 L 459.11 855.18 L 466.81 860.97 C475.44,867.48 484.55,872.70 495.86,877.64 ZM 359.00 547.03 C364.77,547.43 387.05,547.67 408.50,547.57 C445.55,547.39 447.83,547.27 454.04,545.22 C467.70,540.69 471.45,534.86 482.89,500.29 C490.81,476.40 492.61,472.34 496.99,468.66 C502.32,464.18 512.41,462.60 517.80,465.40 C524.34,468.81 527.81,475.96 537.65,506.36 C544.09,526.23 547.62,533.47 553.55,538.94 C562.52,547.21 572.77,548.45 626.00,547.68 C669.72,547.05 675.10,546.53 684.63,541.93 C688.03,540.29 689.23,538.89 691.46,533.90 C694.93,526.18 699.54,512.59 701.95,503.00 C705.88,487.35 710.00,451.50 710.00,432.97 C710.00,423.69 709.76,422.11 708.25,421.43 C705.07,420.01 592.58,419.21 454.50,419.62 C379.70,419.85 316.25,420.37 313.50,420.77 L 308.50 421.52 L 308.17 427.51 C307.48,439.87 310.64,475.06 314.09,493.50 C316.19,504.72 323.46,528.05 327.04,535.08 C330.50,541.87 340.93,545.76 359.00,547.03 ZM 310.65 401.25 L 311.29 408.00 L 314.51 408.00 C316.27,408.00 319.74,407.72 322.21,407.38 L 326.70 406.77 L 327.30 390.13 C328.28,362.98 331.98,347.57 342.30,327.69 C354.38,304.42 372.62,288.30 395.82,280.38 C409.48,275.72 417.82,274.66 435.50,275.33 C451.06,275.92 452.39,276.15 478.00,282.75 C486.52,284.95 498.23,287.29 504.00,287.95 C516.11,289.34 520.28,288.70 551.00,280.71 C585.10,271.85 607.26,272.51 629.84,283.06 C640.48,288.03 648.78,293.99 657.10,302.64 C676.25,322.54 685.73,349.88 686.74,388.14 L 687.24 406.78 L 690.87 407.38 C692.87,407.71 696.86,407.98 699.75,407.99 L 705.00 408.00 L 705.00 404.57 C705.00,402.68 705.71,390.94 706.58,378.47 C708.51,350.79 707.96,340.34 703.81,325.88 C702.86,322.59 703.07,321.79 706.20,316.88 C710.90,309.50 716.00,299.07 716.00,296.84 C716.00,295.29 715.10,294.97 710.25,294.81 C707.09,294.70 703.38,294.70 702.00,294.81 C697.37,295.17 695.78,295.11 695.23,294.56 C694.93,294.26 695.54,290.08 696.59,285.26 C698.08,278.45 698.48,272.72 698.42,259.50 C698.35,243.25 697.62,236.00 696.05,236.00 C695.65,236.00 693.68,237.69 691.67,239.75 C684.20,247.39 677.77,252.10 676.51,250.84 C676.20,250.54 674.35,243.81 672.38,235.89 C670.41,227.98 668.45,221.05 668.02,220.50 C667.59,219.95 666.73,217.11 666.11,214.18 C664.94,208.64 658.47,194.22 655.32,190.15 C650.51,183.93 649.24,182.73 648.21,183.37 C647.59,183.75 647.34,184.72 647.65,185.53 C647.96,186.34 647.69,187.00 647.05,187.00 C646.41,187.00 646.19,187.50 646.57,188.11 C646.95,188.72 646.73,189.55 646.08,189.95 C645.43,190.35 644.83,191.65 644.74,192.84 C644.65,194.03 644.15,195.00 643.62,195.00 C643.10,195.00 642.95,195.28 643.30,195.63 C643.65,195.98 643.40,197.22 642.75,198.38 C642.10,199.55 641.67,200.84 641.79,201.25 C641.90,201.66 641.52,202.00 640.94,202.00 C640.36,202.00 640.14,202.42 640.46,202.93 C640.77,203.44 640.57,204.15 640.00,204.50 C639.43,204.85 639.23,205.56 639.54,206.07 C639.86,206.58 639.61,207.00 639.00,207.00 C638.39,207.00 638.14,207.42 638.46,207.93 C638.77,208.44 638.57,209.15 638.00,209.50 C637.43,209.85 637.23,210.56 637.54,211.07 C637.86,211.58 637.57,212.00 636.89,212.00 C636.22,212.00 635.95,212.28 636.29,212.62 C636.63,212.96 636.22,213.92 635.39,214.75 C634.55,215.59 633.54,215.88 633.13,215.39 C630.38,212.09 627.00,206.96 627.00,206.07 C627.00,205.48 626.59,205.00 626.10,205.00 C625.60,205.00 624.70,203.76 624.10,202.25 C622.57,198.42 618.97,192.57 617.89,192.17 C617.40,191.98 617.00,191.20 617.00,190.42 C617.00,189.64 616.55,189.00 616.00,189.00 C615.45,189.00 615.00,188.37 615.00,187.61 C615.00,186.84 610.26,181.55 604.47,175.86 C591.56,163.16 590.27,162.00 588.97,162.00 C588.40,162.00 587.68,161.32 587.36,160.50 C587.05,159.68 586.20,159.00 585.48,159.00 C584.76,159.00 584.02,158.66 583.83,158.25 C583.34,157.13 576.06,151.84 574.69,151.60 C574.04,151.48 572.06,150.63 570.30,149.70 C565.09,146.93 564.05,147.38 564.41,152.25 C564.58,154.59 565.06,157.31 565.48,158.29 C565.90,159.28 565.97,160.36 565.63,160.70 C565.29,161.04 565.46,161.85 566.00,162.50 C566.54,163.15 567.19,166.56 567.46,170.09 C567.72,173.61 568.20,178.75 568.52,181.50 C569.18,187.28 568.09,189.68 565.35,188.49 C564.33,188.04 563.15,187.76 562.72,187.85 C562.29,187.94 561.68,187.34 561.37,186.51 C561.05,185.68 560.16,185.00 559.39,185.00 C558.63,185.00 558.00,184.55 558.00,184.00 C558.00,183.45 557.39,183.00 556.65,183.00 C555.90,183.00 554.08,181.88 552.59,180.50 C551.11,179.12 549.47,178.00 548.95,178.00 C548.43,178.00 548.00,177.55 548.00,177.00 C548.00,176.45 547.53,176.00 546.96,176.00 C546.38,176.00 544.69,174.86 543.21,173.47 C541.72,172.08 539.49,170.68 538.25,170.36 C537.01,170.04 536.00,169.38 536.00,168.89 C536.00,168.40 535.36,168.00 534.57,168.00 C533.79,168.00 532.44,167.29 531.57,166.43 C530.71,165.56 530.00,165.15 530.00,165.50 C530.00,165.85 529.30,165.45 528.46,164.60 C527.61,163.75 525.13,162.57 522.96,161.99 C520.78,161.40 519.00,160.44 519.00,159.85 C519.00,159.27 518.33,159.05 517.50,159.36 C516.67,159.68 516.00,159.60 516.00,159.18 C516.00,158.77 514.99,158.35 513.76,158.26 C512.54,158.16 511.37,157.62 511.18,157.04 C510.99,156.47 509.75,156.00 508.42,156.00 C507.09,156.00 506.00,155.50 506.00,154.89 C506.00,154.28 505.33,154.05 504.50,154.36 C503.67,154.68 503.00,154.45 503.00,153.86 C503.00,153.27 502.33,153.05 501.50,153.36 C500.67,153.68 500.00,153.58 500.00,153.14 C500.00,152.69 498.61,152.33 496.91,152.33 C495.21,152.33 493.53,151.85 493.16,151.26 C492.54,150.25 482.68,148.00 478.88,148.00 C477.24,148.00 477.22,148.29 478.65,152.50 C479.50,154.98 480.62,157.00 481.15,157.00 C481.68,157.00 481.84,157.45 481.50,158.00 C481.16,158.55 481.39,159.00 482.00,159.00 C482.61,159.00 482.84,159.45 482.50,160.00 C482.16,160.55 482.39,161.00 483.00,161.00 C483.61,161.00 483.84,161.45 483.50,162.00 C483.16,162.55 483.39,163.00 484.00,163.00 C484.61,163.00 484.84,163.45 484.50,164.00 C484.16,164.55 484.29,165.00 484.78,165.00 C485.75,165.00 488.46,170.01 488.17,171.25 C488.08,171.66 488.48,172.00 489.06,172.00 C489.64,172.00 489.84,172.45 489.50,173.00 C489.16,173.55 489.36,174.00 489.94,174.00 C490.52,174.00 491.00,174.68 491.00,175.50 C491.00,176.32 491.52,177.00 492.17,177.00 C492.81,177.00 493.05,177.28 492.70,177.63 C492.35,177.98 492.60,179.22 493.24,180.38 C494.71,183.04 495.33,187.00 494.28,187.00 C493.84,187.00 489.58,185.92 484.80,184.61 C480.02,183.30 475.88,182.45 475.60,182.73 C475.32,183.01 474.37,182.51 473.48,181.62 C472.59,180.73 470.64,180.00 469.15,180.00 C467.66,180.00 465.50,179.34 464.35,178.54 C463.20,177.73 461.98,177.35 461.63,177.70 C461.28,178.05 461.00,177.84 461.00,177.25 C461.00,176.28 456.04,174.60 454.38,175.01 C454.02,175.10 453.45,174.77 453.11,174.29 C452.12,172.86 439.92,167.93 438.92,168.55 C438.41,168.86 438.00,168.74 438.00,168.27 C438.00,167.81 437.03,167.35 435.84,167.26 C434.65,167.17 433.41,166.74 433.09,166.30 C432.77,165.86 431.60,165.34 430.50,165.15 C429.40,164.96 428.27,164.51 428.00,164.15 C427.73,163.79 426.60,163.34 425.50,163.15 C424.40,162.96 423.22,162.36 422.89,161.81 C422.55,161.27 422.10,160.90 421.89,161.00 C421.03,161.36 416.00,159.74 416.00,159.09 C416.00,158.71 414.31,157.80 412.25,157.06 C410.19,156.32 407.97,155.52 407.32,155.28 C405.79,154.71 406.74,158.50 409.12,162.43 C410.10,164.04 410.67,165.73 410.39,166.18 C410.11,166.63 410.39,167.00 411.00,167.00 C411.61,167.00 411.84,167.45 411.50,168.00 C411.16,168.55 411.39,169.00 412.00,169.00 C412.61,169.00 412.84,169.45 412.50,170.00 C412.16,170.55 412.39,171.00 413.00,171.00 C413.61,171.00 413.84,171.45 413.50,172.00 C413.16,172.55 413.31,173.00 413.83,173.00 C414.36,173.00 415.51,174.83 416.41,177.06 C417.30,179.29 418.91,182.06 419.98,183.21 C421.05,184.36 421.69,185.68 421.41,186.15 C421.12,186.62 421.39,187.00 422.00,187.00 C422.61,187.00 422.84,187.45 422.50,188.00 C422.16,188.55 422.35,189.00 422.92,189.00 C423.49,189.00 424.24,190.12 424.59,191.50 C424.93,192.88 425.64,194.00 426.17,194.00 C426.69,194.00 426.84,194.45 426.50,195.00 C426.16,195.55 426.39,196.00 427.00,196.00 C427.61,196.00 427.84,196.45 427.50,197.00 C427.16,197.55 427.28,198.00 427.77,198.00 C428.27,198.00 428.69,198.56 428.71,199.25 C428.74,199.94 429.07,201.23 429.44,202.13 C430.27,204.12 425.51,205.67 423.54,204.04 C422.85,203.46 420.44,202.86 418.19,202.71 C415.94,202.56 413.78,202.12 413.39,201.72 C412.99,201.32 411.46,201.00 409.99,201.00 C408.51,201.00 405.99,200.34 404.38,199.54 C402.77,198.74 399.44,197.83 396.98,197.52 C394.51,197.21 392.35,196.52 392.17,195.98 C391.98,195.44 390.74,195.00 389.40,195.00 C388.07,195.00 386.19,194.61 385.24,194.12 C382.59,192.79 375.80,190.71 373.06,190.41 C371.72,190.26 369.69,189.67 368.56,189.09 C366.46,188.03 347.83,182.00 346.65,182.00 C345.60,182.00 345.91,185.83 347.02,186.51 C347.58,186.86 347.77,187.56 347.46,188.07 C347.14,188.58 347.39,189.00 348.00,189.00 C348.61,189.00 348.84,189.45 348.50,190.00 C348.16,190.55 348.39,191.00 349.00,191.00 C349.61,191.00 349.84,191.45 349.50,192.00 C349.16,192.55 349.39,193.00 350.00,193.00 C350.61,193.00 350.86,193.41 350.55,193.92 C350.24,194.43 350.64,195.50 351.44,196.30 C352.25,197.10 352.63,198.04 352.29,198.38 C351.95,198.72 352.22,199.00 352.89,199.00 C353.57,199.00 353.84,199.45 353.50,200.00 C353.16,200.55 353.39,201.00 354.00,201.00 C354.61,201.00 354.86,201.41 354.55,201.92 C354.24,202.43 354.69,203.55 355.56,204.42 C356.43,205.29 356.85,206.00 356.50,206.00 C356.15,206.00 356.56,206.71 357.43,207.57 C358.29,208.44 359.00,209.79 359.00,210.57 C359.00,211.36 359.52,212.00 360.17,212.00 C360.81,212.00 361.06,212.27 360.73,212.61 C360.39,212.94 360.98,214.13 362.03,215.26 C363.07,216.38 363.69,217.68 363.41,218.15 C363.12,218.62 363.36,219.00 363.94,219.00 C364.52,219.00 365.00,219.68 365.00,220.50 C365.00,221.32 365.45,222.00 366.00,222.00 C366.55,222.00 367.00,222.68 367.00,223.50 C367.00,224.32 367.40,225.00 367.88,225.00 C368.37,225.00 369.04,225.79 369.38,226.75 C369.72,227.71 370.25,229.01 370.54,229.63 C371.71,232.06 356.06,233.38 325.25,233.45 L 304.00 233.50 L 304.22 236.25 C304.33,237.76 304.81,239.00 305.27,239.00 C305.74,239.00 305.84,239.45 305.50,240.00 C305.16,240.55 305.39,241.00 306.00,241.00 C306.61,241.00 306.84,241.45 306.50,242.00 C306.16,242.55 306.36,243.00 306.94,243.00 C307.52,243.00 307.89,243.34 307.75,243.75 C307.62,244.16 308.74,246.12 310.25,248.09 C311.76,250.07 313.00,252.16 313.00,252.73 C313.00,253.30 314.15,254.52 315.54,255.44 C316.94,256.35 318.49,258.15 318.97,259.43 C319.46,260.70 322.02,263.47 324.68,265.58 C329.50,269.41 332.94,272.95 332.98,274.13 C332.99,274.47 331.65,275.32 330.00,276.00 C328.35,276.68 327.00,277.64 327.00,278.12 C327.00,278.60 325.88,279.00 324.50,279.00 C323.12,279.00 322.00,279.48 322.00,280.06 C322.00,280.64 321.63,280.89 321.17,280.61 C320.02,279.90 301.31,286.85 296.77,289.68 C294.72,290.96 292.63,292.00 292.13,292.00 C291.64,292.00 290.49,293.13 289.59,294.51 C287.62,297.51 288.62,300.08 292.79,302.73 C294.28,303.68 295.73,304.72 296.00,305.03 C296.27,305.35 299.76,307.78 303.73,310.43 C308.06,313.31 310.70,315.70 310.30,316.37 C309.94,316.99 308.62,319.14 307.38,321.14 C306.13,323.14 305.39,325.05 305.72,325.39 C306.06,325.73 305.78,326.00 305.11,326.00 C304.43,326.00 304.16,326.45 304.50,327.00 C304.84,327.55 304.61,328.00 304.00,328.00 C303.39,328.00 303.16,328.45 303.50,329.00 C303.84,329.55 303.61,330.00 303.00,330.00 C302.39,330.00 302.16,330.45 302.50,331.00 C302.84,331.55 302.61,332.00 302.00,332.00 C301.39,332.00 301.14,332.42 301.46,332.93 C301.77,333.44 301.57,334.15 301.00,334.50 C300.43,334.85 300.23,335.56 300.54,336.07 C300.86,336.58 300.70,337.00 300.20,337.00 C299.13,337.00 295.51,347.85 296.31,348.64 C296.60,348.94 299.35,348.65 302.41,348.02 C305.47,347.38 308.43,347.15 308.99,347.49 C309.62,347.89 310.00,356.72 310.01,371.31 C310.01,384.06 310.30,397.54 310.65,401.25 ZM 479.50 407.07 C496.47,408.53 541.97,406.94 549.20,404.63 C556.67,402.24 580.36,400.62 608.50,400.58 C635.33,400.53 650.16,401.77 656.86,404.61 C658.86,405.46 663.76,406.41 667.75,406.72 L 675.00 407.29 L 675.00 393.78 C675.00,379.29 673.53,368.63 669.32,352.50 C660.52,318.84 642.73,299.00 613.85,290.63 C594.06,284.89 583.16,285.93 537.07,297.95 C515.61,303.55 502.74,303.05 474.92,295.51 C452.98,289.57 443.41,288.00 429.22,288.00 C418.78,288.00 414.39,288.47 406.67,290.43 C372.78,299.03 349.60,326.22 343.09,365.00 C341.75,372.97 340.02,393.40 340.01,401.40 L 340.00 407.30 L 348.25 406.65 C352.79,406.30 359.65,405.10 363.49,404.00 C367.34,402.90 376.79,401.49 384.49,400.87 C408.54,398.94 464.05,401.71 470.14,405.14 C471.44,405.87 475.65,406.74 479.50,407.07 ZM 295.85 753.31 C300.44,756.99 304.54,760.00 304.96,760.00 C305.38,760.00 304.03,753.11 301.95,744.68 C299.87,736.25 297.85,727.14 297.44,724.43 C296.78,719.98 295.82,718.57 287.72,710.00 C258.72,679.35 234.47,636.58 222.49,594.97 C213.46,563.59 210.58,540.50 211.29,505.00 C211.96,471.25 215.43,449.54 224.64,421.50 C236.14,386.48 258.37,348.46 281.78,323.82 L 287.17 318.14 L 283.12 312.78 C280.89,309.83 277.32,303.68 275.17,299.11 L 271.26 290.80 L 262.49 300.65 C232.67,334.12 210.43,373.80 196.57,418.23 C182.18,464.34 179.22,515.83 188.01,567.50 C196.37,616.71 215.71,661.36 246.58,702.70 C256.33,715.77 282.38,742.52 295.85,753.31 ZM 716.32 754.49 C716.12,755.14 715.97,755.62 716.12,755.75 C716.55,756.11 719.39,753.63 730.44,744.02 C777.23,703.30 813.06,640.06 825.91,575.50 C831.21,548.88 833.42,510.39 831.09,485.34 C827.40,445.67 817.01,409.70 798.91,374.00 C784.21,345.00 768.10,321.70 746.87,298.75 C738.17,289.35 736.00,287.64 736.00,290.20 C736.00,293.50 730.67,308.18 727.67,313.16 L 724.25 318.82 L 729.71 324.16 C741.31,335.51 754.31,352.64 765.89,371.82 C791.31,413.91 804.22,461.43 804.14,512.56 C804.04,573.23 787.98,626.05 754.41,676.10 C745.57,689.28 737.99,698.99 729.82,707.56 L 724.04 713.62 L 721.48 728.51 C718.91,743.42 717.46,750.76 716.32,754.49 ZM 443.84 531.47 C438.45,532.69 430.47,532.97 403.80,532.87 C369.68,532.74 361.76,532.24 352.67,529.59 C346.43,527.78 343.40,525.16 340.84,519.38 C333.92,503.72 328.46,456.18 332.31,445.05 C335.27,436.47 342.55,435.65 411.00,436.22 C458.52,436.62 463.85,436.82 467.20,438.42 C473.36,441.35 474.78,449.13 472.52,467.55 C470.36,485.10 467.58,498.29 463.57,509.93 C457.73,526.91 456.11,528.68 443.84,531.47 ZM 651.84 532.03 C645.60,532.55 627.22,532.94 611.00,532.91 C586.47,532.86 580.32,532.56 574.50,531.11 C562.20,528.06 561.43,527.24 555.39,510.92 C545.87,485.18 541.18,452.14 545.75,443.00 C546.25,442.01 546.66,441.16 547.23,440.45 C550.41,436.50 558.52,436.53 613.50,436.52 C665.65,436.50 672.06,436.67 677.07,438.23 C685.89,440.96 686.38,441.93 686.83,457.33 C687.15,468.26 686.76,473.16 684.57,486.01 C681.13,506.11 679.59,511.89 675.47,520.05 C670.98,528.98 667.52,530.73 651.84,532.03 ZM 615.57 699.79 C617.18,706.50 618.76,712.00 619.08,712.00 C619.75,712.00 624.20,703.08 625.82,698.50 C629.75,687.41 630.62,667.59 627.61,657.50 C623.99,645.38 618.30,636.21 608.04,626.00 C595.23,613.25 583.27,606.38 563.50,600.41 C555.75,598.07 552.76,597.70 542.00,597.71 C531.83,597.73 528.19,598.15 522.50,599.97 C511.92,603.36 511.16,603.38 500.97,600.34 C483.61,595.17 463.41,597.08 440.56,606.03 C427.24,611.25 417.04,617.98 408.50,627.17 C395.85,640.78 389.00,657.57 389.00,674.95 C389.00,685.52 390.84,693.18 395.75,703.00 C400.77,713.03 402.12,712.84 403.69,701.90 C405.29,690.66 408.09,683.42 414.42,674.12 C420.32,665.44 428.42,658.40 438.26,653.40 C446.86,649.03 454.17,647.40 471.00,646.10 C489.10,644.71 498.25,641.86 507.14,634.87 C509.15,633.29 511.00,632.00 511.26,632.00 C511.52,632.00 514.74,634.01 518.40,636.47 C525.83,641.45 534.77,644.58 546.00,646.13 C572.12,649.74 573.40,650.02 581.92,654.14 C588.46,657.31 592.06,659.94 597.98,665.86 C607.58,675.46 611.62,683.26 615.57,699.79 ZM 364.33 519.00 C366.62,519.48 384.02,519.76 403.00,519.62 C432.73,519.40 438.12,519.13 441.95,517.66 C448.00,515.33 449.60,513.67 452.08,507.11 C454.65,500.33 461.00,463.85 461.00,455.88 L 461.00 450.18 L 457.25 449.63 C451.02,448.73 348.67,448.44 346.25,449.32 C344.12,450.09 344.00,450.66 344.00,460.36 C344.00,478.22 348.64,506.75 352.50,512.65 C354.35,515.47 358.77,517.84 364.33,519.00 ZM 580.00 518.47 C586.37,520.45 647.22,520.58 654.55,518.63 C661.01,516.91 663.64,515.48 665.48,512.67 C668.57,507.96 674.00,473.77 674.00,459.05 L 674.00 451.29 L 667.06 450.15 C659.52,448.90 573.13,448.49 562.06,449.65 L 555.83 450.30 L 556.51 457.40 C558.06,473.53 565.52,505.88 568.99,511.48 C571.16,514.99 573.40,516.41 580.00,518.47 ZM 635.00 638.88 C635.00,641.21 638.13,639.81 645.69,634.11 C666.76,618.23 675.37,603.21 680.99,572.56 C683.45,559.13 683.57,555.57 681.51,556.36 C680.70,556.67 674.96,557.69 668.76,558.63 C659.55,560.02 649.57,560.35 613.88,560.42 L 570.26 560.50 L 569.63 567.91 C569.23,572.57 568.06,577.36 566.48,580.81 C565.10,583.83 564.09,586.41 564.24,586.55 C564.38,586.68 567.68,587.73 571.56,588.88 C587.86,593.71 607.97,605.80 619.70,617.82 C625.96,624.24 635.00,636.68 635.00,638.88 ZM 375.37 636.12 L 382.34 641.02 L 384.95 636.26 C397.24,613.80 422.89,595.28 451.85,587.97 C455.81,586.97 456.06,586.72 454.72,585.19 C451.10,581.05 449.68,576.44 449.59,568.50 L 449.50 560.50 L 422.00 560.81 C382.44,561.26 351.10,559.54 340.61,556.35 C338.83,555.81 338.76,556.33 339.26,566.14 C340.37,587.87 349.09,610.37 361.65,623.94 C365.36,627.95 371.54,633.43 375.37,636.12 ZM 468.39 582.09 C470.10,583.14 472.91,583.99 474.62,584.00 C477.30,584.00 477.84,583.57 478.35,581.00 C479.55,575.00 489.70,571.76 493.60,576.14 C496.28,579.16 506.87,584.00 510.80,584.00 C514.84,584.00 519.30,581.80 524.25,577.36 C526.97,574.93 528.95,574.00 531.43,574.00 C535.45,574.00 540.71,577.93 541.18,581.28 C541.87,586.09 551.85,584.11 554.70,578.61 C556.81,574.54 558.97,566.32 558.99,562.34 C559.00,559.58 558.16,558.58 552.53,554.56 C541.00,546.33 533.97,534.09 523.68,504.30 C516.71,484.11 513.82,478.24 510.48,477.41 C505.70,476.21 503.16,480.32 497.45,498.50 C487.29,530.84 475.64,551.06 463.62,557.19 L 459.73 559.18 L 460.37 565.28 C461.17,572.96 464.36,579.64 468.39,582.09 ZM 436.42 702.62 C446.23,707.18 460.77,705.32 467.44,698.65 C469.65,696.44 469.78,695.88 468.72,693.07 C467.88,690.84 467.85,689.47 468.61,688.26 C469.58,686.72 473.26,686.59 511.07,686.69 C544.96,686.78 553.16,686.69 554.12,689.28 C554.46,690.20 553.87,691.48 553.20,693.22 C552.00,696.36 552.10,696.64 555.39,699.69 C557.29,701.44 560.78,703.40 563.14,704.04 C568.93,705.60 580.62,704.85 585.19,702.62 C591.16,699.72 592.50,696.83 592.50,686.81 C592.50,678.24 592.45,678.06 589.00,674.43 C587.08,672.40 582.81,668.97 579.52,666.82 C574.28,663.39 573.06,662.98 569.66,663.56 C564.43,664.44 456.55,664.44 451.32,663.55 C446.76,662.78 443.80,663.92 436.15,669.38 C430.55,673.38 429.12,676.29 428.36,685.29 C427.51,695.31 429.38,699.34 436.42,702.62 ZM 719.65 571.25 C720.00,574.96 720.58,578.00 720.93,578.00 C722.31,578.00 728.34,566.68 731.63,557.93 C735.82,546.80 742.58,519.83 743.98,508.68 C744.54,504.21 745.00,493.50 745.00,484.88 C745.00,466.45 743.16,458.32 737.78,452.94 C734.86,450.02 734.23,449.81 729.78,450.34 C727.13,450.65 724.56,451.15 724.08,451.45 C723.61,451.74 722.91,456.60 722.54,462.24 C722.16,467.88 721.64,473.26 721.38,474.19 C721.01,475.52 721.69,475.94 724.60,476.19 C728.71,476.54 731.15,479.11 729.49,481.35 C728.95,482.09 727.10,484.55 725.39,486.81 C721.99,491.29 722.11,490.52 720.00,522.00 C718.88,538.66 718.72,561.42 719.65,571.25 ZM 298.84 574.25 C299.65,575.21 300.69,576.00 301.15,576.00 C303.85,576.00 299.55,501.79 296.38,493.50 C295.54,491.30 293.48,487.36 291.81,484.74 C288.07,478.87 288.99,477.00 295.62,477.00 C299.96,477.00 300.00,476.97 300.00,473.48 C300.00,471.42 298.17,466.06 295.57,460.48 C291.19,451.11 291.10,451.00 287.57,451.00 C279.72,451.00 277.91,456.31 277.27,481.21 C276.73,502.04 277.30,506.12 285.02,537.05 C290.42,558.69 294.10,568.60 298.84,574.25 ZM 503.42 650.07 L 499.72 653.00 L 511.61 652.95 C523.03,652.90 523.40,652.83 521.00,651.24 C519.62,650.32 516.84,647.88 514.81,645.81 L 511.12 642.04 L 509.11 644.59 C508.01,645.99 505.45,648.45 503.42,650.07 Z" fill="rgba(0,0,1,1)"/>
<path d="M 310.65 401.25 C310.30,397.54 310.01,384.06 310.01,371.31 C310.00,356.72 309.62,347.89 308.99,347.49 C309.54,347.84 310.00,351.27 310.00,355.13 C310.00,361.72 310.10,362.04 311.70,360.45 C313.41,358.74 316.29,344.31 315.26,342.63 C314.97,342.15 312.55,342.01 309.89,342.33 C307.23,342.64 304.80,342.49 304.49,341.99 C303.27,340.00 312.49,324.15 320.35,314.74 C322.53,312.13 324.14,309.83 323.91,309.63 C323.69,309.43 319.12,306.92 313.76,304.05 C308.40,301.18 303.81,298.50 303.56,298.09 C303.30,297.68 312.13,294.33 323.18,290.64 C343.77,283.77 360.00,277.27 360.00,275.89 C360.00,275.47 357.35,273.07 354.10,270.58 C348.23,266.06 337.00,254.41 337.00,252.83 C337.00,252.37 340.05,252.00 343.79,252.00 C354.90,252.00 397.21,246.00 399.19,244.15 C399.57,243.79 397.81,240.12 395.28,236.00 C390.22,227.74 385.00,216.87 385.00,214.57 C385.00,213.27 385.57,213.27 389.75,214.56 C406.46,219.71 429.49,224.16 446.75,225.58 C453.84,226.16 455.00,226.04 455.00,224.70 C455.00,223.85 452.52,216.86 449.50,209.18 C443.85,194.83 443.08,191.78 445.25,192.45 C445.94,192.66 457.52,196.43 471.00,200.84 C497.70,209.56 513.58,214.08 514.45,213.22 C516.25,211.41 514.09,195.42 510.59,184.70 C508.79,179.20 508.55,177.43 509.53,177.19 C510.24,177.02 513.99,178.48 517.86,180.43 C536.66,189.90 553.25,201.58 568.20,215.87 C573.45,220.89 578.00,225.00 578.30,225.00 C579.01,225.00 581.56,216.89 583.01,210.00 C583.65,206.98 584.42,198.76 584.73,191.75 C585.04,184.74 585.63,179.00 586.04,179.00 C587.41,179.00 593.31,186.38 599.22,195.50 C602.43,200.45 610.03,214.31 616.10,226.31 C622.54,239.02 627.63,247.96 628.32,247.74 C630.08,247.18 640.45,232.48 644.54,224.75 C646.50,221.04 648.52,218.00 649.02,218.00 C651.61,218.00 660.97,259.60 660.99,271.19 C661.00,272.67 661.43,274.15 661.97,274.48 C663.03,275.14 678.67,268.95 683.62,265.91 C685.33,264.86 687.08,264.00 687.51,264.00 C688.78,264.00 687.29,284.94 685.46,292.80 C684.53,296.81 683.99,300.32 684.27,300.60 C684.55,300.88 688.76,300.41 693.64,299.56 C698.51,298.70 704.22,298.00 706.32,298.00 C709.81,298.00 710.08,298.19 709.46,300.25 C708.57,303.24 704.51,310.39 700.36,316.25 C698.51,318.87 697.00,321.51 697.00,322.13 C697.00,322.75 698.07,326.24 699.37,329.88 C700.68,333.52 702.55,340.21 703.52,344.75 C704.49,349.29 705.67,353.00 706.14,353.00 C708.01,353.00 706.57,335.94 703.95,326.40 C707.97,340.59 708.48,351.12 706.58,378.47 C705.71,390.94 705.00,402.68 705.00,404.57 L 705.00 408.00 L 699.75 407.99 C696.86,407.98 692.87,407.71 690.87,407.38 L 687.24 406.78 L 686.74 388.14 C685.73,349.88 676.25,322.54 657.10,302.64 C648.78,293.99 640.48,288.03 629.84,283.06 C607.26,272.51 585.10,271.85 551.00,280.71 C520.28,288.70 516.11,289.34 504.00,287.95 C498.23,287.29 486.52,284.95 478.00,282.75 C452.39,276.15 451.06,275.92 435.50,275.33 C417.82,274.66 409.48,275.72 395.82,280.38 C372.62,288.30 354.38,304.42 342.30,327.69 C331.98,347.57 328.28,362.98 327.30,390.13 L 326.70 406.77 L 322.21 407.38 C319.74,407.72 316.27,408.00 314.51,408.00 L 311.29 408.00 ZM 416.00 159.09 C416.00,159.45 417.58,160.12 419.11,160.58 C417.55,160.19 416.00,159.53 416.00,159.09 ZM 421.92 160.99 C422.15,160.94 422.57,161.30 422.89,161.81 C422.66,161.45 422.29,161.15 421.92,160.99 Z" fill="rgba(0,111,238,1)"/>
<path d="M 476.50 903.89 C445.42,901.54 407.58,893.36 377.65,882.53 C344.09,870.38 303.10,847.99 276.02,827.00 C253.40,809.47 231.69,788.91 214.72,768.95 C212.64,766.50 209.91,763.38 208.66,762.00 C204.32,757.24 199.00,750.16 199.00,749.13 C199.00,748.56 198.43,747.74 197.72,747.30 C195.86,746.13 190.00,738.40 190.00,737.11 C190.00,736.50 189.55,736.00 189.00,736.00 C188.45,736.00 188.00,735.41 188.00,734.69 C188.00,733.97 187.10,732.41 186.00,731.23 C184.90,730.05 184.00,728.65 184.00,728.13 C184.00,727.60 183.63,727.02 183.18,726.83 C182.13,726.40 173.74,714.00 174.50,714.00 C174.82,714.00 174.14,713.00 173.00,711.77 C171.86,710.54 170.67,708.52 170.35,707.27 C170.04,706.02 169.36,705.00 168.83,705.00 C168.31,705.00 168.16,704.55 168.50,704.00 C168.84,703.45 168.64,703.00 168.06,703.00 C167.48,703.00 167.00,702.36 167.00,701.57 C167.00,700.79 166.29,699.44 165.43,698.57 C164.56,697.71 164.23,696.99 164.68,696.98 C165.13,696.98 165.02,696.64 164.44,696.23 C162.98,695.22 152.89,675.07 146.28,660.00 C138.36,641.90 129.05,613.94 126.64,601.00 C126.39,599.62 125.92,597.83 125.60,597.00 C124.36,593.75 117.99,556.57 117.42,549.26 C117.09,544.99 116.53,537.90 116.16,533.50 C114.93,518.65 115.65,478.22 117.41,462.67 C120.54,435.05 126.52,407.05 134.64,382.00 C134.91,381.17 135.06,380.33 134.98,380.11 C134.90,379.90 135.21,379.45 135.68,379.11 C136.15,378.78 137.51,375.11 138.71,370.97 C139.91,366.83 141.89,361.20 143.11,358.47 C145.61,352.90 145.39,353.46 146.44,349.75 C146.87,348.24 147.54,347.00 147.94,347.00 C148.34,347.00 148.67,346.37 148.67,345.61 C148.67,343.79 166.04,308.60 167.15,308.17 C167.62,307.98 168.00,307.20 168.00,306.42 C168.00,305.64 168.38,305.00 168.83,305.00 C169.29,305.00 169.67,304.42 169.67,303.71 C169.67,302.18 176.88,290.65 178.14,290.16 C178.62,289.98 178.76,289.42 178.45,288.91 C178.14,288.41 178.36,288.00 178.94,288.00 C179.52,288.00 180.00,287.54 180.00,286.98 C180.00,285.71 187.06,275.00 187.90,275.00 C188.24,275.00 189.06,273.76 189.74,272.25 C190.41,270.74 192.09,268.28 193.48,266.79 C194.87,265.31 196.00,263.72 196.00,263.27 C196.00,262.81 196.79,261.70 197.75,260.79 C198.71,259.87 200.40,257.92 201.50,256.44 C202.60,254.97 204.24,252.97 205.14,251.99 C206.04,251.02 207.16,249.54 207.64,248.69 C209.81,244.84 231.63,221.81 242.00,212.43 C248.32,206.71 254.40,201.21 255.50,200.20 C281.90,176.01 328.90,148.22 368.36,133.47 C382.25,128.28 411.92,119.44 418.50,118.54 C419.60,118.39 421.17,118.00 422.00,117.67 C423.54,117.07 433.80,115.15 440.00,114.31 C441.92,114.05 444.85,113.62 446.50,113.35 C448.15,113.08 451.19,112.66 453.25,112.43 C455.31,112.19 458.69,111.79 460.75,111.53 C487.99,108.15 513.76,107.82 545.50,110.46 C548.80,110.74 553.19,110.95 555.25,110.94 C557.31,110.93 559.00,111.38 559.00,111.94 C559.00,112.50 560.91,112.95 563.25,112.94 C571.44,112.90 573.00,113.09 573.00,114.12 C573.00,114.75 574.15,114.91 575.90,114.52 C577.50,114.17 579.08,114.32 579.41,114.85 C579.73,115.38 580.85,115.59 581.89,115.32 C582.93,115.05 584.05,115.27 584.39,115.82 C584.73,116.37 585.90,116.58 587.00,116.29 C588.11,116.00 589.00,116.26 589.00,116.87 C589.00,117.48 589.79,117.88 590.75,117.75 C593.88,117.35 602.00,119.09 602.00,120.17 C602.00,120.74 602.63,120.97 603.40,120.68 C604.17,120.38 605.11,120.44 605.47,120.81 C605.84,121.17 606.67,121.50 607.32,121.54 C610.34,121.70 616.00,123.30 616.00,124.00 C616.00,124.43 616.56,124.72 617.25,124.65 C619.45,124.42 629.00,127.35 629.00,128.25 C629.00,128.73 629.44,128.85 629.97,128.52 C633.82,126.14 716.00,164.89 716.00,169.07 C716.00,169.58 716.59,170.00 717.31,170.00 C718.03,170.00 719.50,170.79 720.56,171.75 C721.63,172.71 724.25,174.40 726.38,175.50 C728.52,176.60 731.52,178.74 733.06,180.25 C734.59,181.76 736.33,183.00 736.92,183.00 C737.52,183.00 738.00,183.45 738.00,184.00 C738.00,184.55 738.51,185.00 739.13,185.00 C741.74,185.00 765.64,205.52 780.50,220.52 C794.84,235.00 798.84,239.31 806.76,248.79 C808.01,250.28 810.41,253.07 812.10,255.00 C818.19,261.95 833.00,282.13 833.00,283.48 C833.00,283.76 833.79,284.89 834.75,286.00 C841.93,294.32 864.77,338.18 873.28,360.00 C885.15,390.45 893.19,423.24 897.16,457.50 C899.67,479.10 900.18,524.16 898.15,543.50 C892.46,597.40 880.23,639.53 857.45,683.73 C835.41,726.48 813.11,756.98 779.03,791.02 C766.97,803.05 743.78,822.58 730.00,832.29 C722.83,837.34 704.93,849.03 701.00,851.22 C698.53,852.60 693.63,855.42 690.13,857.48 C679.10,863.98 650.01,877.60 637.00,882.36 C602.57,894.95 568.82,901.89 532.00,903.96 C511.11,905.13 492.67,905.11 476.50,903.89 ZM 517.74 896.04 C520.81,895.47 526.51,893.60 530.41,891.87 C534.31,890.14 539.39,887.90 541.69,886.89 C543.99,885.87 556.82,881.27 570.19,876.65 C602.10,865.63 621.24,858.79 632.40,854.41 C641.27,850.92 678.00,833.27 679.00,832.01 C679.28,831.66 682.42,829.64 686.00,827.53 C689.58,825.41 695.33,821.72 698.80,819.34 C702.26,816.95 705.49,815.00 705.96,815.00 C706.44,815.00 706.98,814.66 707.17,814.25 C707.58,813.31 714.65,808.00 715.48,808.00 C716.21,808.00 718.54,806.14 720.79,803.75 C721.70,802.79 722.75,802.00 723.12,802.00 C723.49,802.00 725.08,800.90 726.65,799.57 C728.22,798.23 732.88,794.36 737.00,790.97 C756.10,775.28 767.26,764.31 783.50,745.27 C785.15,743.34 787.51,740.66 788.75,739.33 C789.99,738.00 791.00,736.48 791.00,735.96 C791.00,735.44 791.90,734.45 793.00,733.77 C794.10,733.08 795.00,732.19 795.00,731.79 C795.00,730.60 801.32,722.00 802.19,722.00 C802.64,722.00 803.00,721.53 803.00,720.96 C803.00,719.69 815.01,701.63 816.17,701.17 C816.63,700.98 817.00,700.43 817.00,699.94 C817.00,699.45 820.30,693.30 824.34,686.28 C835.97,666.02 845.11,645.74 851.93,625.00 C853.65,619.78 855.34,614.83 855.69,614.00 C856.04,613.17 856.42,612.16 856.54,611.75 C856.65,611.34 856.87,610.66 857.03,610.25 C857.18,609.84 857.37,609.05 857.46,608.50 C857.86,605.86 860.33,596.38 860.85,595.50 C861.18,594.95 861.54,594.05 861.66,593.50 C861.78,592.95 862.16,591.38 862.49,590.00 C862.82,588.62 863.29,586.15 863.53,584.50 C863.77,582.85 864.47,579.06 865.09,576.09 C866.51,569.22 868.86,554.72 869.39,549.50 C869.62,547.30 870.13,542.58 870.54,539.00 C870.94,535.42 871.23,520.35 871.18,505.50 C871.10,478.05 870.71,470.80 868.45,454.00 C868.12,451.52 867.72,448.38 867.58,447.00 C867.43,445.62 867.18,444.27 867.03,444.00 C866.87,443.73 866.61,442.38 866.45,441.00 C866.28,439.62 865.88,437.15 865.54,435.50 C865.21,433.85 864.89,431.83 864.83,431.00 C864.78,430.17 864.37,429.04 863.94,428.48 C863.50,427.93 862.90,425.68 862.60,423.48 C861.84,417.88 861.56,416.68 860.62,415.18 C860.17,414.46 860.07,413.60 860.39,413.28 C860.72,412.95 860.58,412.19 860.09,411.59 C859.59,410.99 858.94,409.15 858.64,407.50 C857.81,402.91 853.78,390.69 847.51,373.80 C841.05,356.37 840.76,355.51 841.19,355.48 C841.36,355.46 840.94,354.79 840.25,353.98 C839.56,353.16 836.34,347.10 833.08,340.50 C829.82,333.90 823.97,323.22 820.08,316.76 C816.18,310.30 813.00,304.60 813.00,304.09 C813.00,303.58 812.65,303.02 812.23,302.83 C811.17,302.38 801.53,288.91 800.72,286.75 C800.36,285.79 799.60,285.00 799.03,285.00 C798.46,285.00 798.00,284.31 798.00,283.47 C798.00,282.63 797.33,281.68 796.50,281.36 C795.67,281.05 795.00,280.26 795.00,279.62 C795.00,278.97 794.21,277.71 793.25,276.82 C792.29,275.93 790.25,273.69 788.72,271.85 C787.18,270.01 784.48,266.77 782.72,264.65 C778.45,259.54 753.42,234.59 747.32,229.37 C735.68,219.39 726.62,212.31 715.50,204.49 C711.65,201.78 708.28,199.33 708.00,199.03 C707.72,198.74 706.38,197.85 705.00,197.06 C703.62,196.26 697.91,192.79 692.29,189.33 C680.72,182.22 651.53,167.37 640.70,163.10 C636.74,161.54 627.89,158.36 621.04,156.04 C614.19,153.71 607.60,151.07 606.40,150.16 C605.21,149.25 603.22,147.82 601.99,147.00 C600.76,146.18 599.25,145.05 598.63,144.50 C591.35,138.04 572.06,127.99 561.81,125.32 C555.56,123.68 554.90,123.68 551.64,125.23 C548.41,126.77 548.04,127.45 546.46,134.52 C545.39,139.36 544.19,142.37 543.19,142.76 C541.64,143.35 529.52,141.44 517.00,138.61 C513.42,137.80 502.40,135.32 492.50,133.08 C473.58,128.81 468.36,128.28 463.08,130.12 C459.30,131.44 458.00,134.21 458.00,140.95 L 458.00 145.77 L 452.45 146.46 C446.38,147.22 441.20,146.64 433.50,144.34 C423.18,141.25 410.25,138.86 403.00,138.69 C389.37,138.38 385.04,142.84 387.96,154.20 C389.58,160.54 388.93,161.25 378.45,164.66 L 370.10 167.38 L 357.80 165.68 C338.54,163.03 331.95,163.71 327.95,168.78 C326.06,171.17 325.88,172.30 326.44,178.06 C326.72,180.86 326.98,182.54 326.51,183.99 C325.67,186.55 322.52,188.36 313.00,194.32 C266.78,223.26 232.37,257.29 201.23,304.86 C180.44,336.62 164.61,372.94 155.17,410.56 C147.21,442.28 144.05,465.04 143.31,496.04 C142.55,527.68 144.47,550.21 150.46,580.00 C151.84,586.88 152.98,593.65 152.99,595.05 C152.99,596.45 153.41,598.03 153.92,598.55 C154.42,599.07 156.03,603.90 157.48,609.28 C165.57,639.15 182.98,676.58 202.25,705.50 C231.19,748.95 259.15,778.66 298.25,807.52 C301.96,810.26 305.00,812.84 305.00,813.25 C305.00,813.66 305.67,814.00 306.50,814.00 C307.33,814.00 308.00,814.45 308.00,815.00 C308.00,815.55 308.46,816.00 309.02,816.00 C310.03,816.00 331.09,829.17 334.08,831.68 C334.95,832.40 336.18,833.00 336.81,833.00 C337.45,833.00 340.91,834.80 344.50,837.00 C348.09,839.20 351.47,841.00 352.00,841.00 C353.31,841.00 364.36,846.31 365.08,847.29 C365.40,847.72 366.77,848.27 368.12,848.52 C369.47,848.76 374.16,850.52 378.54,852.43 C382.92,854.34 395.05,858.68 405.50,862.08 C415.95,865.47 425.17,868.48 426.00,868.76 C426.83,869.04 428.62,869.41 430.00,869.60 C433.80,870.11 456.39,878.01 457.03,879.06 C457.35,879.56 460.03,880.44 463.00,881.00 C465.97,881.56 468.75,882.58 469.18,883.26 C469.62,883.94 469.98,884.11 469.98,883.64 C469.99,883.16 471.02,883.44 472.26,884.25 C473.51,885.07 475.99,886.06 477.76,886.45 C479.54,886.84 481.00,887.53 481.00,887.97 C481.00,888.90 483.37,889.96 486.98,890.65 C488.34,890.91 489.73,891.56 490.06,892.10 C490.39,892.63 491.91,893.30 493.43,893.57 C494.95,893.85 497.55,894.62 499.20,895.29 C503.33,896.96 511.07,897.27 517.74,896.04 ZM 310.00 355.13 C310.00,351.27 309.54,347.84 308.99,347.49 C308.43,347.15 305.47,347.38 302.41,348.02 C301.65,348.18 300.91,348.31 300.22,348.42 C300.49,348.30 300.75,348.16 301.00,348.00 C302.27,347.18 302.21,347.03 300.66,347.02 C299.61,347.01 298.57,346.05 298.24,344.80 C297.71,342.79 297.63,342.70 296.98,344.35 C297.95,341.02 299.55,337.00 300.20,337.00 C300.70,337.00 300.86,336.58 300.54,336.07 C300.23,335.56 300.43,334.85 301.00,334.50 C301.57,334.15 301.77,333.44 301.46,332.93 C301.14,332.42 301.39,332.00 302.00,332.00 C302.61,332.00 302.84,331.55 302.50,331.00 C302.16,330.45 302.39,330.00 303.00,330.00 C303.61,330.00 303.84,329.55 303.50,329.00 C303.16,328.45 303.39,328.00 304.00,328.00 C304.61,328.00 304.84,327.55 304.50,327.00 C304.16,326.45 304.43,326.00 305.11,326.00 C305.78,326.00 306.06,325.73 305.72,325.39 C305.39,325.05 306.13,323.14 307.38,321.14 C308.62,319.14 309.94,316.99 310.30,316.37 C310.70,315.70 308.06,313.31 303.73,310.43 C299.76,307.78 296.27,305.35 296.00,305.03 C295.73,304.72 294.28,303.68 292.79,302.73 C288.62,300.08 287.62,297.51 289.59,294.51 C290.49,293.13 291.64,292.00 292.13,292.00 C292.63,292.00 294.72,290.96 296.77,289.68 C301.31,286.85 320.02,279.90 321.17,280.61 C321.63,280.89 322.00,280.64 322.00,280.06 C322.00,279.48 323.12,279.00 324.50,279.00 C325.88,279.00 327.00,278.60 327.00,278.12 C327.00,277.64 328.35,276.68 330.00,276.00 C331.65,275.32 332.99,274.47 332.98,274.13 C332.94,272.95 329.50,269.41 324.68,265.58 C322.02,263.47 319.46,260.70 318.97,259.43 C318.49,258.15 316.94,256.35 315.54,255.44 C314.15,254.52 313.00,253.30 313.00,252.73 C313.00,252.16 311.76,250.07 310.25,248.09 C308.74,246.12 307.62,244.16 307.75,243.75 C307.89,243.34 307.52,243.00 306.94,243.00 C306.36,243.00 306.16,242.55 306.50,242.00 C306.84,241.45 306.61,241.00 306.00,241.00 C305.39,241.00 305.16,240.55 305.50,240.00 C305.84,239.45 305.74,239.00 305.27,239.00 C304.81,239.00 304.33,237.76 304.22,236.25 L 304.00 233.50 L 325.25 233.45 C356.06,233.38 371.71,232.06 370.54,229.63 C370.25,229.01 369.72,227.71 369.38,226.75 C369.04,225.79 368.37,225.00 367.88,225.00 C367.40,225.00 367.00,224.32 367.00,223.50 C367.00,222.68 366.55,222.00 366.00,222.00 C365.45,222.00 365.00,221.32 365.00,220.50 C365.00,219.68 364.52,219.00 363.94,219.00 C363.36,219.00 363.12,218.62 363.41,218.15 C363.69,217.68 363.07,216.38 362.03,215.26 C360.98,214.13 360.39,212.94 360.73,212.61 C361.06,212.27 360.81,212.00 360.17,212.00 C359.52,212.00 359.00,211.36 359.00,210.57 C359.00,209.79 358.29,208.44 357.43,207.57 C356.56,206.71 356.15,206.00 356.50,206.00 C356.85,206.00 356.43,205.29 355.56,204.42 C354.69,203.55 354.24,202.43 354.55,201.92 C354.86,201.41 354.61,201.00 354.00,201.00 C353.39,201.00 353.16,200.55 353.50,200.00 C353.84,199.45 353.57,199.00 352.89,199.00 C352.22,199.00 351.95,198.72 352.29,198.38 C352.63,198.04 352.25,197.10 351.44,196.30 C350.64,195.50 350.24,194.43 350.55,193.92 C350.86,193.41 350.61,193.00 350.00,193.00 C349.39,193.00 349.16,192.55 349.50,192.00 C349.84,191.45 349.61,191.00 349.00,191.00 C348.39,191.00 348.16,190.55 348.50,190.00 C348.84,189.45 348.61,189.00 348.00,189.00 C347.39,189.00 347.14,188.58 347.46,188.07 C347.77,187.56 347.58,186.86 347.02,186.51 C346.37,186.11 345.99,184.62 346.00,183.46 C346.03,184.17 346.29,184.96 346.61,185.27 C347.40,186.07 349.93,183.73 349.34,182.75 C349.32,182.72 349.30,182.69 349.28,182.67 C354.77,184.26 366.89,188.25 368.56,189.09 C369.69,189.67 371.72,190.26 373.06,190.41 C375.80,190.71 382.59,192.79 385.24,194.12 C386.19,194.61 388.07,195.00 389.40,195.00 C390.74,195.00 391.98,195.44 392.17,195.98 C392.35,196.52 394.51,197.21 396.98,197.52 C399.44,197.83 402.77,198.74 404.38,199.54 C405.99,200.34 408.51,201.00 409.99,201.00 C411.46,201.00 412.99,201.32 413.39,201.72 C413.78,202.12 415.94,202.56 418.19,202.71 C420.44,202.86 422.85,203.46 423.54,204.04 C425.51,205.67 430.27,204.12 429.44,202.13 C429.07,201.23 428.74,199.94 428.71,199.25 C428.69,198.56 428.27,198.00 427.77,198.00 C427.28,198.00 427.16,197.55 427.50,197.00 C427.84,196.45 427.61,196.00 427.00,196.00 C426.39,196.00 426.16,195.55 426.50,195.00 C426.84,194.45 426.69,194.00 426.17,194.00 C425.64,194.00 424.93,192.88 424.59,191.50 C424.24,190.12 423.49,189.00 422.92,189.00 C422.35,189.00 422.16,188.55 422.50,188.00 C422.84,187.45 422.61,187.00 422.00,187.00 C421.39,187.00 421.12,186.62 421.41,186.15 C421.69,185.68 421.05,184.36 419.98,183.21 C418.91,182.06 417.30,179.29 416.41,177.06 C415.51,174.83 414.36,173.00 413.83,173.00 C413.31,173.00 413.16,172.55 413.50,172.00 C413.84,171.45 413.61,171.00 413.00,171.00 C412.39,171.00 412.16,170.55 412.50,170.00 C412.84,169.45 412.61,169.00 412.00,169.00 C411.39,169.00 411.16,168.55 411.50,168.00 C411.84,167.45 411.61,167.00 411.00,167.00 C410.39,167.00 410.11,166.63 410.39,166.18 C410.67,165.73 410.10,164.04 409.12,162.43 C407.67,160.03 406.75,157.67 406.60,156.34 C406.71,156.73 406.89,157.24 407.13,157.86 C407.91,159.93 408.24,160.06 409.76,158.90 C410.72,158.16 411.67,157.45 411.89,157.31 C412.04,157.21 411.56,156.90 410.74,156.52 C411.24,156.70 411.75,156.88 412.25,157.06 C414.31,157.80 416.00,158.71 416.00,159.09 C416.00,159.76 419.61,160.95 421.39,160.87 C421.88,160.85 422.55,161.27 422.89,161.81 C423.22,162.36 424.40,162.96 425.50,163.15 C426.60,163.34 427.73,163.79 428.00,164.15 C428.27,164.51 429.40,164.96 430.50,165.15 C431.60,165.34 432.77,165.86 433.09,166.30 C433.41,166.74 434.65,167.17 435.84,167.26 C437.03,167.35 438.00,167.81 438.00,168.27 C438.00,168.74 438.41,168.86 438.92,168.55 C439.92,167.93 452.12,172.86 453.11,174.29 C453.45,174.77 454.02,175.10 454.38,175.01 C456.04,174.60 461.00,176.28 461.00,177.25 C461.00,177.84 461.28,178.05 461.63,177.70 C461.98,177.35 463.20,177.73 464.35,178.54 C465.50,179.34 467.66,180.00 469.15,180.00 C470.64,180.00 472.59,180.73 473.48,181.62 C474.37,182.51 475.32,183.01 475.60,182.73 C475.88,182.45 480.02,183.30 484.80,184.61 C489.58,185.92 493.84,187.00 494.28,187.00 C495.33,187.00 494.71,183.04 493.24,180.38 C492.60,179.22 492.35,177.98 492.70,177.63 C493.05,177.28 492.81,177.00 492.17,177.00 C491.52,177.00 491.00,176.32 491.00,175.50 C491.00,174.68 490.52,174.00 489.94,174.00 C489.36,174.00 489.16,173.55 489.50,173.00 C489.84,172.45 489.64,172.00 489.06,172.00 C488.48,172.00 488.08,171.66 488.17,171.25 C488.46,170.01 485.75,165.00 484.78,165.00 C484.29,165.00 484.16,164.55 484.50,164.00 C484.84,163.45 484.61,163.00 484.00,163.00 C483.39,163.00 483.16,162.55 483.50,162.00 C483.84,161.45 483.61,161.00 483.00,161.00 C482.39,161.00 482.16,160.55 482.50,160.00 C482.84,159.45 482.61,159.00 482.00,159.00 C481.39,159.00 481.16,158.55 481.50,158.00 C481.84,157.45 481.68,157.00 481.15,157.00 C480.91,157.00 480.53,156.57 480.12,155.86 C480.23,155.94 480.39,156.00 480.57,156.00 C480.88,156.00 480.89,155.21 480.59,154.25 C479.69,151.35 481.46,149.69 484.92,150.20 C486.65,150.46 487.69,150.29 487.24,149.84 C486.79,149.39 484.27,148.72 481.64,148.36 L 478.99 148.00 C482.86,148.04 492.54,150.26 493.16,151.26 C493.53,151.85 495.21,152.33 496.91,152.33 C498.61,152.33 500.00,152.69 500.00,153.14 C500.00,153.58 500.67,153.68 501.50,153.36 C502.33,153.05 503.00,153.27 503.00,153.86 C503.00,154.45 503.67,154.68 504.50,154.36 C505.33,154.05 506.00,154.28 506.00,154.89 C506.00,155.50 507.09,156.00 508.42,156.00 C509.75,156.00 510.99,156.47 511.18,157.04 C511.37,157.62 512.54,158.16 513.76,158.26 C514.99,158.35 516.00,158.77 516.00,159.18 C516.00,159.60 516.67,159.68 517.50,159.36 C518.33,159.05 519.00,159.27 519.00,159.85 C519.00,160.44 520.78,161.40 522.96,161.99 C525.13,162.57 527.61,163.75 528.46,164.60 C529.30,165.45 530.00,165.85 530.00,165.50 C530.00,165.15 530.71,165.56 531.57,166.43 C532.44,167.29 533.79,168.00 534.57,168.00 C535.36,168.00 536.00,168.40 536.00,168.89 C536.00,169.38 537.01,170.04 538.25,170.36 C539.49,170.68 541.72,172.08 543.21,173.47 C544.69,174.86 546.38,176.00 546.96,176.00 C547.53,176.00 548.00,176.45 548.00,177.00 C548.00,177.55 548.43,178.00 548.95,178.00 C549.47,178.00 551.11,179.12 552.59,180.50 C554.08,181.88 555.90,183.00 556.65,183.00 C557.39,183.00 558.00,183.45 558.00,184.00 C558.00,184.55 558.63,185.00 559.39,185.00 C560.16,185.00 561.05,185.68 561.37,186.51 C561.68,187.34 562.29,187.94 562.72,187.85 C563.15,187.76 564.33,188.04 565.35,188.49 C568.09,189.68 569.18,187.28 568.52,181.50 C568.20,178.75 567.72,173.61 567.46,170.09 C567.19,166.56 566.54,163.15 566.00,162.50 C565.46,161.85 565.29,161.04 565.63,160.70 C565.97,160.36 565.90,159.28 565.48,158.29 C565.06,157.31 564.58,154.59 564.41,152.25 C564.05,147.38 565.09,146.93 570.30,149.70 C572.06,150.63 574.04,151.48 574.69,151.60 C576.06,151.84 583.34,157.13 583.83,158.25 C584.02,158.66 584.76,159.00 585.48,159.00 C586.20,159.00 587.05,159.68 587.36,160.50 C587.68,161.32 588.40,162.00 588.97,162.00 C590.27,162.00 591.56,163.16 604.47,175.86 C610.26,181.55 615.00,186.84 615.00,187.61 C615.00,188.37 615.45,189.00 616.00,189.00 C616.55,189.00 617.00,189.64 617.00,190.42 C617.00,191.20 617.40,191.98 617.89,192.17 C618.97,192.57 622.57,198.42 624.10,202.25 C624.70,203.76 625.60,205.00 626.10,205.00 C626.59,205.00 627.00,205.48 627.00,206.07 C627.00,206.96 630.38,212.09 633.13,215.39 C633.54,215.88 634.55,215.59 635.39,214.75 C636.22,213.92 636.63,212.96 636.29,212.62 C635.95,212.28 636.22,212.00 636.89,212.00 C637.57,212.00 637.86,211.58 637.54,211.07 C637.23,210.56 637.43,209.85 638.00,209.50 C638.57,209.15 638.77,208.44 638.46,207.93 C638.14,207.42 638.39,207.00 639.00,207.00 C639.61,207.00 639.86,206.58 639.54,206.07 C639.23,205.56 639.43,204.85 640.00,204.50 C640.57,204.15 640.77,203.44 640.46,202.93 C640.14,202.42 640.36,202.00 640.94,202.00 C641.52,202.00 641.90,201.66 641.79,201.25 C641.67,200.84 642.10,199.55 642.75,198.38 C643.40,197.22 643.65,195.98 643.30,195.63 C642.95,195.28 643.10,195.00 643.62,195.00 C644.15,195.00 644.65,194.03 644.74,192.84 C644.83,191.65 645.43,190.35 646.08,189.95 C646.73,189.55 646.95,188.72 646.57,188.11 C646.19,187.50 646.41,187.00 647.05,187.00 C647.69,187.00 647.96,186.34 647.65,185.53 C647.34,184.72 647.59,183.75 648.21,183.37 C649.24,182.73 650.51,183.93 655.32,190.15 C658.47,194.22 664.94,208.64 666.11,214.18 C666.73,217.11 667.59,219.95 668.02,220.50 C668.45,221.05 670.41,227.98 672.38,235.89 C674.35,243.81 676.20,250.54 676.51,250.84 C677.77,252.10 684.20,247.39 691.67,239.75 C693.68,237.69 695.65,236.00 696.05,236.00 C697.62,236.00 698.35,243.25 698.42,259.50 C698.48,272.72 698.08,278.45 696.59,285.26 C695.54,290.08 694.93,294.26 695.23,294.56 C695.78,295.11 697.37,295.17 702.00,294.81 C703.38,294.70 707.09,294.70 710.25,294.81 C715.10,294.97 716.00,295.29 716.00,296.84 C716.00,299.07 710.90,309.50 706.20,316.88 C703.07,321.79 702.86,322.59 703.81,325.88 C706.52,335.31 708.04,353.00 706.14,353.00 C705.67,353.00 704.49,349.29 703.52,344.75 C702.55,340.21 700.68,333.52 699.37,329.88 C698.07,326.24 697.00,322.75 697.00,322.13 C697.00,321.51 698.51,318.87 700.36,316.25 C704.51,310.39 708.57,303.24 709.46,300.25 C710.08,298.19 709.81,298.00 706.32,298.00 C704.22,298.00 698.51,298.70 693.64,299.56 C688.76,300.41 684.55,300.88 684.27,300.60 C683.99,300.32 684.53,296.81 685.46,292.80 C687.29,284.94 688.78,264.00 687.51,264.00 C687.08,264.00 685.33,264.86 683.62,265.91 C678.67,268.95 663.03,275.14 661.97,274.48 C661.43,274.15 661.00,272.67 660.99,271.19 C660.97,259.60 651.61,218.00 649.02,218.00 C648.52,218.00 646.50,221.04 644.54,224.75 C640.45,232.48 630.08,247.18 628.32,247.74 C627.63,247.96 622.54,239.02 616.10,226.31 C610.03,214.31 602.43,200.45 599.22,195.50 C593.31,186.38 587.41,179.00 586.04,179.00 C585.63,179.00 585.04,184.74 584.73,191.75 C584.42,198.76 583.65,206.98 583.01,210.00 C581.56,216.89 579.01,225.00 578.30,225.00 C578.00,225.00 573.45,220.89 568.20,215.87 C553.25,201.58 536.66,189.90 517.86,180.43 C513.99,178.48 510.24,177.02 509.53,177.19 C508.55,177.43 508.79,179.20 510.59,184.70 C514.09,195.42 516.25,211.41 514.45,213.22 C513.58,214.08 497.70,209.56 471.00,200.84 C457.52,196.43 445.94,192.66 445.25,192.45 C443.08,191.78 443.85,194.83 449.50,209.18 C452.52,216.86 455.00,223.85 455.00,224.70 C455.00,226.04 453.84,226.16 446.75,225.58 C429.49,224.16 406.46,219.71 389.75,214.56 C385.57,213.27 385.00,213.27 385.00,214.57 C385.00,216.87 390.22,227.74 395.28,236.00 C397.81,240.12 399.57,243.79 399.19,244.15 C397.21,246.00 354.90,252.00 343.79,252.00 C340.05,252.00 337.00,252.37 337.00,252.83 C337.00,254.41 348.23,266.06 354.10,270.58 C357.35,273.07 360.00,275.47 360.00,275.89 C360.00,277.27 343.77,283.77 323.18,290.64 C312.13,294.33 303.30,297.68 303.56,298.09 C303.81,298.50 308.40,301.18 313.76,304.05 C319.12,306.92 323.69,309.43 323.91,309.63 C324.14,309.83 322.53,312.13 320.35,314.74 C312.49,324.15 303.27,340.00 304.49,341.99 C304.80,342.49 307.23,342.64 309.89,342.33 C312.55,342.01 314.97,342.15 315.26,342.63 C316.29,344.31 313.41,358.74 311.70,360.45 C310.10,362.04 310.00,361.72 310.00,355.13 ZM 449.74 145.82 C450.42,146.25 452.55,146.42 454.49,146.19 C457.70,145.82 457.99,145.51 457.89,142.64 L 457.79 139.50 L 456.70 142.25 C455.80,144.53 455.00,145.00 452.06,145.02 C449.95,145.02 449.00,145.35 449.74,145.82 ZM 480.00 155.62 C480.00,155.63 480.00,155.63 480.00,155.64 C479.55,154.83 479.07,153.72 478.65,152.50 C478.35,151.60 478.11,150.88 477.94,150.30 L 478.43 151.48 C479.29,153.55 480.00,155.41 480.00,155.62 ZM 346.02 183.13 C346.07,182.48 346.27,182.00 346.65,182.00 C346.73,182.00 346.90,182.03 347.15,182.09 C346.58,182.25 346.11,182.61 346.02,183.13 ZM 296.78 348.75 C296.53,348.74 296.37,348.70 296.31,348.64 C296.25,348.58 296.21,348.46 296.20,348.30 C296.32,348.49 296.52,348.64 296.78,348.75 ZM 406.94 155.23 C407.04,155.21 407.16,155.22 407.30,155.27 C407.16,155.25 407.04,155.23 406.94,155.23 Z" fill="rgba(0,174,252,1)"/>
<path d="M 580.00 518.47 C573.40,516.41 571.16,514.99 568.99,511.48 C565.52,505.88 558.06,473.53 556.51,457.40 L 555.83 450.30 L 562.06 449.65 C573.13,448.49 659.52,448.90 667.06,450.15 L 674.00 451.29 L 674.00 459.05 C674.00,473.77 668.57,507.96 665.48,512.67 C663.64,515.48 661.01,516.91 654.55,518.63 C647.22,520.58 586.37,520.45 580.00,518.47 ZM 480.00 155.62 C480.00,155.41 479.29,153.55 478.43,151.48 L 476.85 147.71 L 481.64 148.36 C484.27,148.72 486.79,149.39 487.24,149.84 C487.69,150.29 486.65,150.46 484.92,150.20 C481.46,149.69 479.69,151.35 480.59,154.25 C480.89,155.21 480.88,156.00 480.57,156.00 C480.26,156.00 480.00,155.83 480.00,155.62 ZM 449.74 145.82 C449.00,145.35 449.95,145.02 452.06,145.02 C455.00,145.00 455.80,144.53 456.70,142.25 L 457.79 139.50 L 457.89 142.64 C457.99,145.51 457.70,145.82 454.49,146.19 C452.55,146.42 450.42,146.25 449.74,145.82 ZM 296.07 347.75 C296.11,347.06 296.48,345.62 296.90,344.55 C297.63,342.70 297.69,342.71 298.24,344.80 C298.57,346.05 299.61,347.01 300.66,347.02 C302.21,347.03 302.27,347.18 301.00,348.00 C298.87,349.38 295.99,349.23 296.07,347.75 ZM 407.13 157.86 C405.99,154.85 406.15,154.72 409.50,156.00 C411.03,156.58 412.10,157.17 411.89,157.31 C411.67,157.45 410.72,158.16 409.76,158.90 C408.24,160.06 407.91,159.93 407.13,157.86 ZM 346.61 185.27 C346.27,184.94 346.00,184.07 346.00,183.33 C346.00,181.92 348.56,181.48 349.34,182.75 C349.93,183.73 347.40,186.07 346.61,185.27 Z" fill="rgba(0,194,254,1)"/>
<path d="M 359.00 547.03 C340.93,545.76 330.50,541.87 327.04,535.08 C323.46,528.05 316.19,504.72 314.09,493.50 C310.64,475.06 307.48,439.87 308.17,427.51 L 308.50 421.52 L 313.50 420.77 C316.25,420.37 379.70,419.85 454.50,419.62 C592.58,419.21 705.07,420.01 708.25,421.43 C709.76,422.11 710.00,423.69 710.00,432.97 C710.00,451.50 705.88,487.35 701.95,503.00 C699.54,512.59 694.93,526.18 691.46,533.90 C689.23,538.89 688.03,540.29 684.63,541.93 C675.10,546.53 669.72,547.05 626.00,547.68 C572.77,548.45 562.52,547.21 553.55,538.94 C547.62,533.47 544.09,526.23 537.65,506.36 C527.81,475.96 524.34,468.81 517.80,465.40 C512.41,462.60 502.32,464.18 496.99,468.66 C492.61,472.34 490.81,476.40 482.89,500.29 C471.45,534.86 467.70,540.69 454.04,545.22 C447.83,547.27 445.55,547.39 408.50,547.57 C387.05,547.67 364.77,547.43 359.00,547.03 ZM 443.84 531.47 C456.11,528.68 457.73,526.91 463.57,509.93 C467.58,498.29 470.36,485.10 472.52,467.55 C474.78,449.13 473.36,441.35 467.20,438.42 C463.85,436.82 458.52,436.62 411.00,436.22 C342.55,435.65 335.27,436.47 332.31,445.05 C328.46,456.18 333.92,503.72 340.84,519.38 C343.40,525.16 346.43,527.78 352.67,529.59 C361.76,532.24 369.68,532.74 403.80,532.87 C430.47,532.97 438.45,532.69 443.84,531.47 ZM 651.84 532.03 C667.52,530.73 670.98,528.98 675.47,520.05 C679.59,511.89 681.13,506.11 684.57,486.01 C686.76,473.16 687.15,468.26 686.83,457.33 C686.38,441.93 685.89,440.96 677.07,438.23 C672.06,436.67 665.65,436.50 613.50,436.52 C558.52,436.53 550.41,436.50 547.23,440.45 C546.66,441.16 546.25,442.01 545.75,443.00 C541.18,452.14 545.87,485.18 555.39,510.92 C561.43,527.24 562.20,528.06 574.50,531.11 C580.32,532.56 586.47,532.86 611.00,532.91 C627.22,532.94 645.60,532.55 651.84,532.03 Z" fill="rgba(129,168,211,1)"/>
<path d="M 701.73 541.10 C699.70,546.43 699.57,548.96 699.19,574.00 C698.90,593.64 699.23,606.64 700.34,619.50 C702.96,649.80 703.19,657.68 702.09,680.50 C701.03,702.73 699.57,713.91 695.83,728.50 C694.70,732.90 693.26,739.81 692.62,743.86 L 691.46 751.22 L 687.98 744.43 C686.07,740.70 684.05,737.50 683.49,737.32 C682.94,737.14 680.97,741.61 679.12,747.25 C675.48,758.36 672.00,765.82 666.30,774.76 C660.05,784.57 650.18,797.16 642.26,805.44 L 634.65 813.39 L 633.44 807.44 C632.24,801.61 629.18,793.96 628.06,794.04 C627.75,794.06 626.26,796.03 624.75,798.42 C620.07,805.81 607.61,819.35 599.37,826.00 C591.52,832.32 577.40,842.00 576.01,842.00 C575.16,842.00 574.02,833.51 574.01,827.12 L 574.00 822.75 L 566.72 829.66 C558.40,837.57 547.02,846.41 535.48,853.96 C527.54,859.15 510.27,868.00 508.10,868.00 C505.79,868.00 490.79,859.82 481.30,853.39 C469.70,845.52 464.11,840.63 456.37,831.56 C449.78,823.85 449.71,823.89 448.52,835.75 C448.12,839.74 447.53,843.00 447.21,843.00 C445.62,843.00 431.30,833.80 421.50,826.48 C411.30,818.86 390.00,798.24 390.00,795.99 C390.00,795.44 389.48,795.00 388.85,795.00 C388.03,795.00 387.87,797.83 388.26,805.00 L 388.81 815.00 L 385.67 812.76 C378.94,807.97 367.01,794.86 360.53,785.12 C353.80,775.02 346.38,759.76 341.85,746.75 C340.56,743.04 339.20,740.00 338.83,740.00 C338.47,740.00 337.22,742.81 336.07,746.25 C333.67,753.38 332.48,755.59 331.71,754.34 C330.18,751.87 322.88,725.95 321.56,718.31 C319.18,704.55 317.00,678.95 317.00,664.80 C317.00,657.72 317.90,642.15 319.01,630.21 C323.02,586.70 323.39,561.08 320.11,549.04 C320.93,551.24 321.72,553.53 322.31,555.50 C323.14,558.25 324.57,565.44 325.50,571.47 C330.96,606.87 345.63,632.27 370.94,650.12 C376.32,653.91 377.07,654.82 376.59,657.00 C375.16,663.56 374.81,678.28 375.91,685.81 C378.15,701.13 383.35,713.31 391.16,721.58 C396.86,727.60 400.18,729.26 405.62,728.82 L 409.50 728.50 L 411.60 718.00 C413.55,708.23 415.97,699.00 416.58,699.00 C416.72,699.00 419.47,701.63 422.68,704.84 C430.45,712.61 437.25,715.34 449.00,715.39 C459.92,715.44 466.05,713.36 474.20,706.82 C477.67,704.05 481.51,701.39 482.73,700.92 C483.96,700.45 497.22,700.26 512.20,700.49 C537.61,700.90 539.59,701.06 541.96,702.94 C553.44,712.04 559.01,714.61 569.50,715.65 C580.63,716.75 595.48,710.75 601.08,702.89 C602.22,701.29 603.51,700.19 603.94,700.46 C605.01,701.12 607.60,710.96 609.00,719.69 C610.35,728.04 611.58,729.49 616.65,728.67 C632.54,726.09 643.93,700.04 642.74,669.00 C642.48,662.12 642.09,655.88 641.88,655.12 C641.66,654.30 645.44,650.72 651.09,646.39 C662.38,637.75 674.52,625.36 680.01,616.86 C682.17,613.52 685.26,607.35 686.88,603.14 C690.56,593.57 694.80,573.19 695.66,560.88 C696.25,552.62 696.78,550.63 700.16,544.20 C700.72,543.14 701.25,542.09 701.73,541.10 ZM 615.57 699.79 C611.62,683.26 607.58,675.46 597.98,665.86 C592.06,659.94 588.46,657.31 581.92,654.14 C573.40,650.02 572.12,649.74 546.00,646.13 C534.77,644.58 525.83,641.45 518.40,636.47 C514.74,634.01 511.52,632.00 511.26,632.00 C511.00,632.00 509.15,633.29 507.14,634.87 C498.25,641.86 489.10,644.71 471.00,646.10 C454.17,647.40 446.86,649.03 438.26,653.40 C428.42,658.40 420.32,665.44 414.42,674.12 C408.09,683.42 405.29,690.66 403.69,701.90 C402.12,712.84 400.77,713.03 395.75,703.00 C390.84,693.18 389.00,685.52 389.00,674.95 C389.00,657.57 395.85,640.78 408.50,627.17 C417.04,617.98 427.24,611.25 440.56,606.03 C463.41,597.08 483.61,595.17 500.97,600.34 C511.16,603.38 511.92,603.36 522.50,599.97 C528.19,598.15 531.83,597.73 542.00,597.71 C552.76,597.70 555.75,598.07 563.50,600.41 C583.27,606.38 595.23,613.25 608.04,626.00 C618.30,636.21 623.99,645.38 627.61,657.50 C630.62,667.59 629.75,687.41 625.82,698.50 C624.20,703.08 619.75,712.00 619.08,712.00 C618.76,712.00 617.18,706.50 615.57,699.79 ZM 503.42 650.07 C505.45,648.45 508.01,645.99 509.11,644.59 L 511.12 642.04 L 514.81 645.81 C516.84,647.88 519.62,650.32 521.00,651.24 C523.40,652.83 523.03,652.90 511.61,652.95 L 499.72 653.00 ZM 704.95 534.13 C704.72,534.39 704.35,535.06 703.89,536.00 C703.96,535.75 704.00,535.57 704.00,535.45 C704.00,534.65 704.39,534.00 704.86,534.00 C704.89,534.00 704.92,534.04 704.95,534.13 ZM 316.96 541.47 C316.48,540.57 316.13,540.02 316.00,540.02 C316.16,540.02 316.50,540.57 316.96,541.47 Z" fill="rgba(144,31,1,1)"/>
<path d="M 495.86 877.64 C484.55,872.70 475.44,867.48 466.81,860.97 L 459.11 855.18 L 458.81 858.34 C458.31,863.44 454.95,863.01 441.71,856.19 C427.86,849.05 417.23,841.84 408.05,833.34 C404.28,829.85 400.93,827.00 400.60,827.00 C400.27,827.00 400.00,829.05 400.00,831.55 L 400.00 836.10 L 392.25 832.06 C369.70,820.31 347.46,797.12 339.24,776.79 C337.73,773.07 336.26,770.02 335.96,770.01 C335.67,770.01 334.01,771.84 332.28,774.09 L 329.14 778.19 L 327.10 774.20 C324.90,769.89 317.01,744.54 314.59,734.00 C311.73,721.54 310.86,713.36 310.08,691.23 C309.65,678.99 309.03,668.70 308.70,668.37 C308.37,668.04 306.51,668.76 304.55,669.97 L 301.00 672.16 L 301.00 670.03 C301.00,668.85 303.44,653.18 306.43,635.20 C314.15,588.65 315.37,578.20 315.44,557.75 C315.47,547.99 315.73,540.01 316.00,540.02 C316.27,540.03 317.62,542.61 318.99,545.77 C323.43,556.01 323.44,582.24 319.01,630.21 C317.90,642.15 317.00,657.72 317.00,664.80 C317.00,678.95 319.18,704.55 321.56,718.31 C322.88,725.95 330.18,751.87 331.71,754.34 C332.48,755.59 333.67,753.38 336.07,746.25 C337.22,742.81 338.47,740.00 338.83,740.00 C339.20,740.00 340.56,743.04 341.85,746.75 C346.38,759.76 353.80,775.02 360.53,785.12 C367.01,794.86 378.94,807.97 385.67,812.76 L 388.81 815.00 L 388.26 805.00 C387.87,797.83 388.03,795.00 388.85,795.00 C389.48,795.00 390.00,795.44 390.00,795.99 C390.00,798.24 411.30,818.86 421.50,826.48 C431.30,833.80 445.62,843.00 447.21,843.00 C447.53,843.00 448.12,839.74 448.52,835.75 C449.71,823.89 449.78,823.85 456.37,831.56 C464.11,840.63 469.70,845.52 481.30,853.39 C490.79,859.82 505.79,868.00 508.10,868.00 C510.27,868.00 527.54,859.15 535.48,853.96 C547.02,846.41 558.40,837.57 566.72,829.66 L 574.00 822.75 L 574.01 827.12 C574.02,833.51 575.16,842.00 576.01,842.00 C577.40,842.00 591.52,832.32 599.37,826.00 C607.61,819.35 620.07,805.81 624.75,798.42 C626.26,796.03 627.75,794.06 628.06,794.04 C629.18,793.96 632.24,801.61 633.44,807.44 L 634.65 813.39 L 642.26 805.44 C650.18,797.16 660.05,784.57 666.30,774.76 C672.00,765.82 675.48,758.36 679.12,747.25 C680.97,741.61 682.94,737.14 683.49,737.32 C684.05,737.50 686.07,740.70 687.98,744.43 L 691.46 751.22 L 692.62 743.86 C693.26,739.81 694.70,732.90 695.83,728.50 C699.57,713.91 701.03,702.73 702.09,680.50 C703.19,657.68 702.96,649.80 700.34,619.50 C699.23,606.64 698.90,593.64 699.19,574.00 C699.58,547.69 699.71,546.23 702.05,540.26 C703.40,536.84 704.78,534.02 705.11,534.01 C705.45,534.01 705.98,546.49 706.28,561.75 C706.88,591.65 708.16,602.16 717.56,654.35 C719.53,665.26 720.90,674.43 720.62,674.72 C720.33,675.01 718.08,674.06 715.62,672.62 C713.16,671.18 710.95,670.00 710.70,670.00 C710.46,670.00 710.02,679.79 709.72,691.75 C709.03,720.04 704.30,749.08 697.86,764.64 C695.27,770.90 691.61,776.12 690.67,774.91 C690.49,774.68 689.09,772.81 687.55,770.75 C686.02,768.69 684.48,767.00 684.13,767.00 C683.78,767.00 682.49,769.59 681.26,772.75 C678.16,780.74 670.97,793.10 664.52,801.52 C658.36,809.55 642.40,825.29 633.67,831.93 C627.00,837.01 626.49,836.78 625.43,828.26 C625.07,825.37 624.70,823.00 624.61,823.00 C624.53,823.00 620.19,827.21 614.97,832.36 C601.34,845.82 583.58,856.83 568.21,861.36 L 562.92 862.92 L 561.96 860.39 C561.43,859.01 561.00,857.22 561.00,856.43 C561.00,854.32 560.53,854.54 553.46,859.96 C544.64,866.71 534.76,872.47 523.99,877.11 C512.12,882.23 506.61,882.33 495.86,877.64 Z" fill="rgba(250,93,0,1)"/>
<path d="M 364.33 519.00 C358.77,517.84 354.35,515.47 352.50,512.65 C348.64,506.75 344.00,478.22 344.00,460.36 C344.00,450.66 344.12,450.09 346.25,449.32 C348.67,448.44 451.02,448.73 457.25,449.63 L 461.00 450.18 L 461.00 455.88 C461.00,463.85 454.65,500.33 452.08,507.11 C449.60,513.67 448.00,515.33 441.95,517.66 C438.12,519.13 432.73,519.40 403.00,519.62 C384.02,519.76 366.62,519.48 364.33,519.00 Z" fill="rgba(254,0,59,1)"/>
<path d="M 472.00 959.88 C327.95,948.26 198.43,866.07 121.04,737.15 C88.95,683.71 69.10,625.72 59.89,558.50 C57.33,539.80 56.08,476.01 57.89,456.29 C60.22,430.81 68.97,389.71 77.83,362.50 C91.12,321.74 113.97,275.57 137.31,242.34 C168.30,198.21 212.09,154.76 254.50,126.05 C310.87,87.90 376.28,62.77 444.67,52.98 C475.59,48.56 533.76,48.32 565.00,52.49 C670.39,66.55 760.70,110.50 833.06,182.93 C883.14,233.06 919.69,292.29 941.70,358.97 C959.36,412.51 967.05,468.62 964.16,523.02 C961.14,579.75 949.77,630.74 929.27,679.48 C861.99,839.40 714.06,947.80 546.50,959.97 C530.21,961.16 487.21,961.10 472.00,959.88 ZM 547.00 934.54 C593.88,930.70 631.80,921.29 676.27,902.44 C726.90,880.99 782.33,842.07 820.00,801.50 C881.63,735.14 922.24,649.78 934.41,560.97 C940.42,517.14 940.42,486.03 934.43,444.00 C919.83,341.65 871.11,250.50 796.00,184.98 C728.49,126.09 652.40,91.23 565.00,79.13 C484.86,68.03 398.96,81.33 324.77,116.33 C289.06,133.17 251.89,158.79 216.86,190.69 C177.80,226.26 147.01,268.84 122.27,321.50 C106.64,354.78 96.41,387.04 89.59,424.50 C83.72,456.81 82.58,469.21 82.62,500.50 C82.68,559.11 90.47,603.93 109.21,653.47 C146.74,752.72 220.00,836.52 313.87,887.53 C381.52,924.30 465.42,941.22 547.00,934.54 Z" fill="rgba(253,0,101,1)"/>
<path d="M 479.50 407.07 C475.65,406.74 471.44,405.87 470.14,405.14 C464.05,401.71 408.54,398.94 384.49,400.87 C376.79,401.49 367.34,402.90 363.49,404.00 C359.65,405.10 352.79,406.30 348.25,406.65 L 340.00 407.30 L 340.01 401.40 C340.02,393.40 341.75,372.97 343.09,365.00 C349.60,326.22 372.78,299.03 406.67,290.43 C414.39,288.47 418.78,288.00 429.22,288.00 C443.41,288.00 452.98,289.57 474.92,295.51 C502.74,303.05 515.61,303.55 537.07,297.95 C583.16,285.93 594.06,284.89 613.85,290.63 C642.73,299.00 660.52,318.84 669.32,352.50 C673.53,368.63 675.00,379.29 675.00,393.78 L 675.00 407.29 L 667.75 406.72 C663.76,406.41 658.86,405.46 656.86,404.61 C650.16,401.77 635.33,400.53 608.50,400.58 C580.36,400.62 556.67,402.24 549.20,404.63 C541.97,406.94 496.47,408.53 479.50,407.07 ZM 635.00 638.88 C635.00,636.68 625.96,624.24 619.70,617.82 C607.97,605.80 587.86,593.71 571.56,588.88 C567.68,587.73 564.38,586.68 564.24,586.55 C564.09,586.41 565.10,583.83 566.48,580.81 C568.06,577.36 569.23,572.57 569.63,567.91 L 570.26 560.50 L 613.88 560.42 C649.57,560.35 659.55,560.02 668.76,558.63 C674.96,557.69 680.70,556.67 681.51,556.36 C683.57,555.57 683.45,559.13 680.99,572.56 C675.37,603.21 666.76,618.23 645.69,634.11 C638.13,639.81 635.00,641.21 635.00,638.88 ZM 375.37 636.12 C371.54,633.43 365.36,627.95 361.65,623.94 C349.09,610.37 340.37,587.87 339.26,566.14 C338.76,556.33 338.83,555.81 340.61,556.35 C351.10,559.54 382.44,561.26 422.00,560.81 L 449.50 560.50 L 449.59 568.50 C449.68,576.44 451.10,581.05 454.72,585.19 C456.06,586.72 455.81,586.97 451.85,587.97 C422.89,595.28 397.24,613.80 384.95,636.26 L 382.34 641.02 ZM 468.39 582.09 C464.36,579.64 461.17,572.96 460.37,565.28 L 459.73 559.18 L 463.62 557.19 C475.64,551.06 487.29,530.84 497.45,498.50 C503.16,480.32 505.70,476.21 510.48,477.41 C513.82,478.24 516.71,484.11 523.68,504.30 C533.97,534.09 541.00,546.33 552.53,554.56 C558.16,558.58 559.00,559.58 558.99,562.34 C558.97,566.32 556.81,574.54 554.70,578.61 C551.85,584.11 541.87,586.09 541.18,581.28 C540.71,577.93 535.45,574.00 531.43,574.00 C528.95,574.00 526.97,574.93 524.25,577.36 C519.30,581.80 514.84,584.00 510.80,584.00 C506.87,584.00 496.28,579.16 493.60,576.14 C489.70,571.76 479.55,575.00 478.35,581.00 C477.84,583.57 477.30,584.00 474.62,584.00 C472.91,583.99 470.10,583.14 468.39,582.09 ZM 436.42 702.62 C429.38,699.34 427.51,695.31 428.36,685.29 C429.12,676.29 430.55,673.38 436.15,669.38 C443.80,663.92 446.76,662.78 451.32,663.55 C456.55,664.44 564.43,664.44 569.66,663.56 C573.06,662.98 574.28,663.39 579.52,666.82 C582.81,668.97 587.08,672.40 589.00,674.43 C592.45,678.06 592.50,678.24 592.50,686.81 C592.50,696.83 591.16,699.72 585.19,702.62 C580.62,704.85 568.93,705.60 563.14,704.04 C560.78,703.40 557.29,701.44 555.39,699.69 C552.10,696.64 552.00,696.36 553.20,693.22 C553.87,691.48 554.46,690.20 554.12,689.28 C553.16,686.69 544.96,686.78 511.07,686.69 C473.26,686.59 469.58,686.72 468.61,688.26 C467.85,689.47 467.88,690.84 468.72,693.07 C469.78,695.88 469.65,696.44 467.44,698.65 C460.77,705.32 446.23,707.18 436.42,702.62 ZM 719.65 571.25 C718.72,561.42 718.88,538.66 720.00,522.00 C722.11,490.52 721.99,491.29 725.39,486.81 C727.10,484.55 728.95,482.09 729.49,481.35 C731.15,479.11 728.71,476.54 724.60,476.19 C721.69,475.94 721.01,475.52 721.38,474.19 C721.64,473.26 722.16,467.88 722.54,462.24 C722.91,456.60 723.61,451.74 724.08,451.45 C724.56,451.15 727.13,450.65 729.78,450.34 C734.23,449.81 734.86,450.02 737.78,452.94 C743.16,458.32 745.00,466.45 745.00,484.88 C745.00,493.50 744.54,504.21 743.98,508.68 C742.58,519.83 735.82,546.80 731.63,557.93 C728.34,566.68 722.31,578.00 720.93,578.00 C720.58,578.00 720.00,574.96 719.65,571.25 ZM 298.84 574.25 C294.10,568.60 290.42,558.69 285.02,537.05 C277.30,506.12 276.73,502.04 277.27,481.21 C277.91,456.31 279.72,451.00 287.57,451.00 C291.10,451.00 291.19,451.11 295.57,460.48 C298.17,466.06 300.00,471.42 300.00,473.48 C300.00,476.97 299.96,477.00 295.62,477.00 C288.99,477.00 288.07,478.87 291.81,484.74 C293.48,487.36 295.54,491.30 296.38,493.50 C299.55,501.79 303.85,576.00 301.15,576.00 C300.69,576.00 299.65,575.21 298.84,574.25 Z" fill="rgba(254,181,182,1)"/>
<path d="M 295.85 753.31 C282.38,742.52 256.33,715.77 246.58,702.70 C215.71,661.36 196.37,616.71 188.01,567.50 C179.22,515.83 182.18,464.34 196.57,418.23 C210.43,373.80 232.67,334.12 262.49,300.65 L 271.26 290.80 L 275.17 299.11 C277.32,303.68 280.89,309.83 283.12,312.78 L 287.17 318.14 L 281.78 323.82 C258.37,348.46 236.14,386.48 224.64,421.50 C215.43,449.54 211.96,471.25 211.29,505.00 C210.58,540.50 213.46,563.59 222.49,594.97 C234.47,636.58 258.72,679.35 287.72,710.00 C295.82,718.57 296.78,719.98 297.44,724.43 C297.85,727.14 299.87,736.25 301.95,744.68 C304.03,753.11 305.38,760.00 304.96,760.00 C304.54,760.00 300.44,756.99 295.85,753.31 ZM 716.32 754.49 C717.46,750.76 718.91,743.42 721.48,728.51 L 724.04 713.62 L 729.82 707.56 C737.99,698.99 745.57,689.28 754.41,676.10 C787.98,626.05 804.04,573.23 804.14,512.56 C804.22,461.43 791.31,413.91 765.89,371.82 C754.31,352.64 741.31,335.51 729.71,324.16 L 724.25 318.82 L 727.67 313.16 C730.67,308.18 736.00,293.50 736.00,290.20 C736.00,287.64 738.17,289.35 746.87,298.75 C768.10,321.70 784.21,345.00 798.91,374.00 C817.01,409.70 827.40,445.67 831.09,485.34 C833.42,510.39 831.21,548.88 825.91,575.50 C813.06,640.06 777.23,703.30 730.44,744.02 C715.49,757.02 715.56,756.97 716.32,754.49 Z" fill="rgba(254,219,0,1)"/>
</g>
</svg>