<svg xmlns="http://www.w3.org/2000/svg" width="1024" height="1024" viewBox="0 0 1024 1024"><path fill="#000001" d="M547 934.54c-81.58 6.68-165.48-10.24-233.13-47.01C220 836.52 146.74 752.72 109.21 653.47c-18.74-49.54-26.53-94.36-26.59-152.97-.04-31.29 1.1-43.69 6.97-76 6.82-37.46 17.05-69.72 32.68-103 24.74-52.66 55.53-95.24 94.59-130.81 35.03-31.9 72.2-57.52 107.91-74.36 74.19-35 160.09-48.3 240.23-37.2 87.4 12.1 163.49 46.96 231 105.85C871.11 250.5 919.83 341.65 934.43 444c5.99 42.03 5.99 73.14-.02 116.97C922.24 649.78 881.63 735.14 820 801.5c-37.67 40.57-93.1 79.49-143.73 100.94-44.47 18.85-82.39 28.26-129.27 32.1m-70.5-30.65c16.17 1.22 34.61 1.24 55.5.07 36.82-2.07 70.57-9.01 105-21.6 13.01-4.76 42.1-18.38 53.13-24.88 3.5-2.06 8.4-4.88 10.87-6.26 3.93-2.19 21.83-13.88 29-18.93 13.78-9.71 36.97-29.24 49.03-41.27 34.08-34.04 56.38-64.54 78.42-107.29 22.78-44.2 35.01-86.33 40.7-140.23 2.03-19.34 1.52-64.4-.99-86-3.97-34.26-12.01-67.05-23.88-97.5-8.51-21.82-31.35-65.68-38.53-74-.96-1.11-1.75-2.24-1.75-2.52 0-1.35-14.81-21.53-20.9-28.48-1.69-1.93-4.09-4.72-5.34-6.21-7.92-9.48-11.92-13.79-26.26-28.27-14.86-15-38.76-35.52-41.37-35.52-.62 0-1.13-.45-1.13-1s-.48-1-1.08-1c-.59 0-2.33-1.24-3.86-2.75-1.54-1.51-4.54-3.65-6.68-4.75-2.13-1.1-4.75-2.79-5.82-3.75-1.06-.96-2.53-1.75-3.25-1.75s-1.31-.42-1.31-.93c0-4.18-82.18-42.93-86.03-40.55-.53.33-.97.21-.97-.27 0-.9-9.55-3.83-11.75-3.6-.69.07-1.25-.22-1.25-.65 0-.7-5.66-2.3-8.68-2.46-.65-.04-1.48-.37-1.85-.73-.36-.37-1.3-.43-2.07-.13-.77.29-1.4.06-1.4-.51 0-1.08-8.12-2.82-11.25-2.42-.96.13-1.75-.27-1.75-.88s-.89-.87-2-.58c-1.1.29-2.27.08-2.61-.47s-1.46-.77-2.5-.5-2.16.06-2.48-.47c-.33-.53-1.91-.68-3.51-.33-1.75.39-2.9.23-2.9-.4 0-1.03-1.56-1.22-9.75-1.18-2.34.01-4.25-.44-4.25-1s-1.69-1.01-3.75-1-6.45-.2-9.75-.48c-31.74-2.64-57.51-2.31-84.75 1.07-2.06.26-5.44.66-7.5.9-2.06.23-5.1.65-6.75.92s-4.58.7-6.5.96c-6.2.84-16.46 2.76-18 3.36-.83.33-2.4.72-3.5.87-6.58.9-36.25 9.74-50.14 14.93-39.46 14.75-86.46 42.54-112.86 66.73-1.1 1.01-7.18 6.51-13.5 12.23-10.37 9.38-32.19 32.41-34.36 36.26-.48.85-1.6 2.33-2.5 3.3-.9.98-2.54 2.98-3.64 4.45-1.1 1.48-2.79 3.43-3.75 4.35-.96.91-1.75 2.02-1.75 2.48 0 .45-1.13 2.04-2.52 3.52-1.39 1.49-3.07 3.95-3.74 5.46-.68 1.51-1.5 2.75-1.84 2.75-.84 0-7.9 10.71-7.9 11.98 0 .56-.48 1.02-1.06 1.02s-.8.41-.49.91c.31.51.17 1.07-.31 1.25-1.26.49-8.47 12.02-8.47 13.55 0 .71-.38 1.29-.84 1.29-.45 0-.83.64-.83 1.42s-.38 1.56-.85 1.75c-1.11.43-18.48 35.62-18.48 37.44 0 .76-.33 1.39-.73 1.39s-1.07 1.24-1.5 2.75c-1.05 3.71-.83 3.15-3.33 8.72-1.22 2.73-3.2 8.36-4.4 12.5s-2.56 7.81-3.03 8.14c-.47.34-.78.79-.7 1 .08.22-.07 1.06-.34 1.89-8.12 25.05-14.1 53.05-17.23 80.67-1.76 15.55-2.48 55.98-1.25 70.83.37 4.4.93 11.49 1.26 15.76.57 7.31 6.94 44.49 8.18 47.74.32.83.79 2.62 1.04 4 2.41 12.94 11.72 40.9 19.64 59 6.61 15.07 16.7 35.22 18.16 36.23.58.41.69.75.24.75-.45.01-.12.73.75 1.59.86.87 1.57 2.22 1.57 3 0 .79.48 1.43 1.06 1.43s.78.45.44 1-.19 1 .33 1c.53 0 1.21 1.02 1.52 2.27.32 1.25 1.51 3.27 2.65 4.5s1.82 2.23 1.5 2.23c-.76 0 7.63 12.4 8.68 12.83.45.19.82.77.82 1.3 0 .52.9 1.92 2 3.1s2 2.74 2 3.46.45 1.31 1 1.31 1 .5 1 1.11c0 1.29 5.86 9.02 7.72 10.19.71.44 1.28 1.26 1.28 1.83 0 1.03 5.32 8.11 9.66 12.87 1.25 1.38 3.98 4.5 6.06 6.95 16.97 19.96 38.68 40.52 61.3 58.05 27.08 20.99 68.07 43.38 101.63 55.53 29.93 10.83 67.77 19.01 98.85 21.36m41.24-7.85c-6.67 1.23-14.41.92-18.54-.75-1.65-.67-4.25-1.44-5.77-1.72-1.52-.27-3.04-.94-3.37-1.47-.33-.54-1.72-1.19-3.08-1.45-3.61-.69-5.98-1.75-5.98-2.68 0-.44-1.46-1.13-3.24-1.52-1.77-.39-4.25-1.38-5.5-2.2-1.24-.81-2.27-1.09-2.28-.61 0 .47-.36.3-.8-.38-.43-.68-3.21-1.7-6.18-2.26s-5.65-1.44-5.97-1.94c-.64-1.05-23.23-8.95-27.03-9.46-1.38-.19-3.17-.56-4-.84s-10.05-3.29-20.5-6.68c-10.45-3.4-22.58-7.74-26.96-9.65s-9.07-3.67-10.42-3.91c-1.35-.25-2.72-.8-3.04-1.23-.72-.98-11.77-6.29-13.08-6.29-.53 0-3.91-1.8-7.5-4s-7.05-4-7.69-4c-.63 0-1.86-.6-2.73-1.32-2.99-2.51-24.05-15.68-25.06-15.68-.56 0-1.02-.45-1.02-1s-.67-1-1.5-1-1.5-.34-1.5-.75-3.04-2.99-6.75-5.73c-39.1-28.86-67.06-58.57-96-102.02-19.27-28.92-36.68-66.35-44.77-96.22-1.45-5.38-3.06-10.21-3.56-10.73-.51-.52-.93-2.1-.93-3.5-.01-1.4-1.15-8.17-2.53-15.05-5.99-29.79-7.91-52.32-7.15-83.96.74-31 3.9-53.76 11.86-85.48 9.44-37.62 25.27-73.94 46.06-105.7 31.14-47.57 65.55-81.6 111.77-110.54 9.52-5.96 12.67-7.77 13.51-10.33.47-1.45.21-3.13-.07-5.93-.56-5.76-.38-6.89 1.51-9.28 4-5.07 10.59-5.75 29.85-3.1l12.3 1.7 8.35-2.72c10.48-3.41 11.13-4.12 9.51-10.46-2.92-11.36 1.41-15.82 15.04-15.51 7.25.17 20.18 2.56 30.5 5.65 7.7 2.3 12.88 2.88 18.95 2.12l5.55-.69v-4.82c0-6.74 1.3-9.51 5.08-10.83 5.28-1.84 10.5-1.31 29.42 2.96 9.9 2.24 20.92 4.72 24.5 5.53 12.52 2.83 24.64 4.74 26.19 4.15 1-.39 2.2-3.4 3.27-8.24 1.58-7.07 1.95-7.75 5.18-9.29 3.26-1.55 3.92-1.55 10.17.09 10.25 2.67 29.54 12.72 36.82 19.18.62.55 2.13 1.68 3.36 2.5s3.22 2.25 4.41 3.16c1.2.91 7.79 3.55 14.64 5.88 6.85 2.32 15.7 5.5 19.66 7.06 10.83 4.27 40.02 19.12 51.59 26.23 5.62 3.46 11.33 6.93 12.71 7.73 1.38.79 2.72 1.68 3 1.97.28.3 3.65 2.75 7.5 5.46 11.12 7.82 20.18 14.9 31.82 24.88 6.1 5.22 31.13 30.17 35.4 35.28 1.76 2.12 4.46 5.36 6 7.2 1.53 1.84 3.57 4.08 4.53 4.97s1.75 2.15 1.75 2.8c0 .64.67 1.43 1.5 1.74.83.32 1.5 1.27 1.5 2.11s.46 1.53 1.03 1.53 1.33.79 1.69 1.75c.81 2.16 10.45 15.63 11.51 16.08.42.19.77.75.77 1.26s3.18 6.21 7.08 12.67c3.89 6.46 9.74 17.14 13 23.74s6.48 12.66 7.17 13.48c.69.81 1.11 1.48.94 1.5-.43.03-.14.89 6.32 18.32 6.27 16.89 10.3 29.11 11.13 33.7.3 1.65.95 3.49 1.45 4.09.49.6.63 1.36.3 1.69-.32.32-.22 1.18.23 1.9.94 1.5 1.22 2.7 1.98 8.3.3 2.2.9 4.45 1.34 5 .43.56.84 1.69.89 2.52.06.83.38 2.85.71 4.5.34 1.65.74 4.12.91 5.5.16 1.38.42 2.73.58 3 .15.27.4 1.62.55 3 .14 1.38.54 4.52.87 7 2.26 16.8 2.65 24.05 2.73 51.5.05 14.85-.24 29.92-.64 33.5-.41 3.58-.92 8.3-1.15 10.5-.53 5.22-2.88 19.72-4.3 26.59-.62 2.97-1.32 6.76-1.56 8.41s-.71 4.12-1.04 5.5-.71 2.95-.83 3.5-.48 1.45-.81 2c-.52.88-2.99 10.36-3.39 13-.09.55-.28 1.34-.43 1.75-.16.41-.38 1.09-.49 1.5-.12.41-.5 1.42-.85 2.25s-2.04 5.78-3.76 11c-6.82 20.74-15.96 41.02-27.59 61.28-4.04 7.02-7.34 13.17-7.34 13.66s-.37 1.04-.83 1.23c-1.16.46-13.17 18.52-13.17 19.79 0 .57-.36 1.04-.81 1.04-.87 0-7.19 8.6-7.19 9.79 0 .4-.9 1.29-2 1.98-1.1.68-2 1.67-2 2.19s-1.01 2.04-2.25 3.37-3.6 4.01-5.25 5.94c-16.24 19.04-27.4 30.01-46.5 45.7-4.12 3.39-8.78 7.26-10.35 8.6-1.57 1.33-3.16 2.43-3.53 2.43s-1.42.79-2.33 1.75c-2.25 2.39-4.58 4.25-5.31 4.25-.83 0-7.9 5.31-8.31 6.25-.19.41-.73.75-1.21.75-.47 0-3.7 1.95-7.16 4.34-3.47 2.38-9.22 6.07-12.8 8.19-3.58 2.11-6.72 4.13-7 4.48-1 1.26-37.73 18.91-46.6 22.4-11.16 4.38-30.3 11.22-62.21 22.24-13.37 4.62-26.2 9.22-28.5 10.24-2.3 1.01-7.38 3.25-11.28 4.98s-9.6 3.6-12.67 4.17m-21.88-18.4c10.75 4.69 16.26 4.59 28.13-.53 10.77-4.64 20.65-10.4 29.47-17.15 7.07-5.42 7.54-5.64 7.54-3.53 0 .79.43 2.58.96 3.96l.96 2.53 5.29-1.56c15.37-4.53 33.13-15.54 46.76-29 5.22-5.15 9.56-9.36 9.64-9.36.09 0 .46 2.37.82 5.26 1.06 8.52 1.57 8.75 8.24 3.67 8.73-6.64 24.69-22.38 30.85-30.41 6.45-8.42 13.64-20.78 16.74-28.77 1.23-3.16 2.52-5.75 2.87-5.75s1.89 1.69 3.42 3.75c1.54 2.06 2.94 3.93 3.12 4.16.94 1.21 4.6-4.01 7.19-10.27 6.44-15.56 11.17-44.6 11.86-72.89.3-11.96.74-21.75.98-21.75.25 0 2.46 1.18 4.92 2.62s4.71 2.39 5 2.1c.28-.29-1.09-9.46-3.06-20.37-9.4-52.19-10.68-62.7-11.28-92.6-.3-15.26-.94-27.75-1.42-27.75-.47 0-.86.65-.86 1.45s-1.73 4.74-3.84 8.75c-3.38 6.43-3.91 8.42-4.5 16.68-.86 12.31-5.1 32.69-8.78 42.26-1.62 4.21-4.71 10.38-6.87 13.72-5.49 8.5-17.63 20.89-28.92 29.53-5.65 4.33-9.43 7.91-9.21 8.73.21.76.6 7 .86 13.88 1.19 31.04-10.2 57.09-26.09 59.67-5.07.82-6.3-.63-7.65-8.98-1.4-8.73-3.99-18.57-5.06-19.23-.43-.27-1.72.83-2.86 2.43-5.6 7.86-20.45 13.86-31.58 12.76-10.49-1.04-16.06-3.61-27.54-12.71-2.37-1.88-4.35-2.04-29.76-2.45-14.98-.23-28.24-.04-29.47.43-1.22.47-5.06 3.13-8.53 5.9-8.15 6.54-14.28 8.62-25.2 8.57-11.75-.05-18.55-2.78-26.32-10.55-3.21-3.21-5.96-5.84-6.1-5.84-.61 0-3.03 9.23-4.98 19l-2.1 10.5-3.88.32c-5.44.44-8.76-1.22-14.46-7.24-7.81-8.27-13.01-20.45-15.25-35.77-1.1-7.53-.75-22.25.68-28.81.48-2.18-.27-3.09-5.65-6.88-25.31-17.85-39.98-43.25-45.44-78.65-.93-6.03-2.36-13.22-3.19-15.97-1.86-6.2-5.64-15.46-6.31-15.48-.27-.01-.53 7.97-.56 17.73-.07 20.45-1.29 30.9-9.01 77.45-2.99 17.98-5.43 33.65-5.43 34.83v2.13l3.55-2.19c1.96-1.21 3.82-1.93 4.15-1.6s.95 10.62 1.38 22.86c.78 22.13 1.65 30.31 4.51 42.77 2.42 10.54 10.31 35.89 12.51 40.2l2.04 3.99 3.14-4.1c1.73-2.25 3.39-4.08 3.68-4.08.3.01 1.77 3.06 3.28 6.78 8.22 20.33 30.46 43.52 53.01 55.27l7.75 4.04v-4.55c0-2.5.27-4.55.6-4.55s3.68 2.85 7.45 6.34c9.18 8.5 19.81 15.71 33.66 22.85 13.24 6.82 16.6 7.25 17.1 2.15l.3-3.16 7.7 5.79c8.63 6.51 17.74 11.73 29.05 16.67M359 547.03c5.77.4 28.05.64 49.5.54 37.05-.18 39.33-.3 45.54-2.35 13.66-4.53 17.41-10.36 28.85-44.93 7.92-23.89 9.72-27.95 14.1-31.63 5.33-4.48 15.42-6.06 20.81-3.26 6.54 3.41 10.01 10.56 19.85 40.96 6.44 19.87 9.97 27.11 15.9 32.58 8.97 8.27 19.22 9.51 72.45 8.74 43.72-.63 49.1-1.15 58.63-5.75 3.4-1.64 4.6-3.04 6.83-8.03 3.47-7.72 8.08-21.31 10.49-30.9 3.93-15.65 8.05-51.5 8.05-70.03 0-9.28-.24-10.86-1.75-11.54-3.18-1.42-115.67-2.22-253.75-1.81-74.8.23-138.25.75-141 1.15l-5 .75-.33 5.99c-.69 12.36 2.47 47.55 5.92 65.99 2.1 11.22 9.37 34.55 12.95 41.58 3.46 6.79 13.89 10.68 31.96 11.95m-48.35-145.78.64 6.75h3.22c1.76 0 5.23-.28 7.7-.62l4.49-.61.6-16.64c.98-27.15 4.68-42.56 15-62.44 12.08-23.27 30.32-39.39 53.52-47.31 13.66-4.66 22-5.72 39.68-5.05 15.56.59 16.89.82 42.5 7.42 8.52 2.2 20.23 4.54 26 5.2 12.11 1.39 16.28.75 47-7.24 34.1-8.86 56.26-8.2 78.84 2.35 10.64 4.97 18.94 10.93 27.26 19.58 19.15 19.9 28.63 47.24 29.64 85.5l.5 18.64 3.63.6c2 .33 5.99.6 8.88.61l5.25.01v-3.43c0-1.89.71-13.63 1.58-26.1 1.93-27.68 1.38-38.13-2.77-52.59-.95-3.29-.74-4.09 2.39-9 4.7-7.38 9.8-17.81 9.8-20.04 0-1.55-.9-1.87-5.75-2.03-3.16-.11-6.87-.11-8.25 0-4.63.36-6.22.3-6.77-.25-.3-.3.31-4.48 1.36-9.3 1.49-6.81 1.89-12.54 1.83-25.76-.07-16.25-.8-23.5-2.37-23.5-.4 0-2.37 1.69-4.38 3.75-7.47 7.64-13.9 12.35-15.16 11.09-.31-.3-2.16-7.03-4.13-14.95-1.97-7.91-3.93-14.84-4.36-15.39s-1.29-3.39-1.91-6.32c-1.17-5.54-7.64-19.96-10.79-24.03-4.81-6.22-6.08-7.42-7.11-6.78-.62.38-.87 1.35-.56 2.16s.04 1.47-.6 1.47-.86.5-.48 1.11.16 1.44-.49 1.84-1.25 1.7-1.34 2.89-.59 2.16-1.12 2.16c-.52 0-.67.28-.32.63s.1 1.59-.55 2.75c-.65 1.17-1.08 2.46-.96 2.87.11.41-.27.75-.85.75s-.8.42-.48.93c.31.51.11 1.22-.46 1.57s-.77 1.06-.46 1.57c.32.51.07.93-.54.93s-.86.42-.54.93c.31.51.11 1.22-.46 1.57s-.77 1.06-.46 1.57c.32.51.03.93-.65.93-.67 0-.94.28-.6.62s-.07 1.3-.9 2.13c-.84.84-1.85 1.13-2.26.64-2.75-3.3-6.13-8.43-6.13-9.32 0-.59-.41-1.07-.9-1.07-.5 0-1.4-1.24-2-2.75-1.53-3.83-5.13-9.68-6.21-10.08-.49-.19-.89-.97-.89-1.75s-.45-1.42-1-1.42-1-.63-1-1.39c0-.77-4.74-6.06-10.53-11.75-12.91-12.7-14.2-13.86-15.5-13.86-.57 0-1.29-.68-1.61-1.5-.31-.82-1.16-1.5-1.88-1.5s-1.46-.34-1.65-.75c-.49-1.12-7.77-6.41-9.14-6.65-.65-.12-2.63-.97-4.39-1.9-5.21-2.77-6.25-2.32-5.89 2.55.17 2.34.65 5.06 1.07 6.04.42.99.49 2.07.15 2.41s-.17 1.15.37 1.8 1.19 4.06 1.46 7.59c.26 3.52.74 8.66 1.06 11.41.66 5.78-.43 8.18-3.17 6.99-1.02-.45-2.2-.73-2.63-.64s-1.04-.51-1.35-1.34c-.32-.83-1.21-1.51-1.98-1.51-.76 0-1.39-.45-1.39-1s-.61-1-1.35-1c-.75 0-2.57-1.12-4.06-2.5-1.48-1.38-3.12-2.5-3.64-2.5s-.95-.45-.95-1-.47-1-1.04-1c-.58 0-2.27-1.14-3.75-2.53-1.49-1.39-3.72-2.79-4.96-3.11s-2.25-.98-2.25-1.47-.64-.89-1.43-.89c-.78 0-2.13-.71-3-1.57-.86-.87-1.57-1.28-1.57-.93s-.7-.05-1.54-.9c-.85-.85-3.33-2.03-5.5-2.61-2.18-.59-3.96-1.55-3.96-2.14 0-.58-.67-.8-1.5-.49-.83.32-1.5.24-1.5-.18 0-.41-1.01-.83-2.24-.92-1.22-.1-2.39-.64-2.58-1.22-.19-.57-1.43-1.04-2.76-1.04s-2.42-.5-2.42-1.11-.67-.84-1.5-.53c-.83.32-1.5.09-1.5-.5s-.67-.81-1.5-.5c-.83.32-1.5.22-1.5-.22 0-.45-1.39-.81-3.09-.81s-3.38-.48-3.75-1.07c-.62-1.01-10.48-3.26-14.28-3.26-1.64 0-1.66.29-.23 4.5.85 2.48 1.97 4.5 2.5 4.5s.69.45.35 1-.11 1 .5 1 .84.45.5 1-.11 1 .5 1 .84.45.5 1-.11 1 .5 1 .84.45.5 1-.21 1 .28 1c.97 0 3.68 5.01 3.39 6.25-.09.41.31.75.89.75s.78.45.44 1-.14 1 .44 1 1.06.68 1.06 1.5.52 1.5 1.17 1.5c.64 0 .88.28.53.63s-.1 1.59.54 2.75c1.47 2.66 2.09 6.62 1.04 6.62-.44 0-4.7-1.08-9.48-2.39s-8.92-2.16-9.2-1.88-1.23-.22-2.12-1.11-2.84-1.62-4.33-1.62-3.65-.66-4.8-1.46c-1.15-.81-2.37-1.19-2.72-.84s-.63.14-.63-.45c0-.97-4.96-2.65-6.62-2.24-.36.09-.93-.24-1.27-.72-.99-1.43-13.19-6.36-14.19-5.74-.51.31-.92.19-.92-.28 0-.46-.97-.92-2.16-1.01s-2.43-.52-2.75-.96-1.49-.96-2.59-1.15-2.23-.64-2.5-1-1.4-.81-2.5-1-2.28-.79-2.61-1.34c-.34-.54-.79-.91-1-.81-.86.36-5.89-1.26-5.89-1.91 0-.38-1.69-1.29-3.75-2.03s-4.28-1.54-4.93-1.78c-1.53-.57-.58 3.22 1.8 7.15.98 1.61 1.55 3.3 1.27 3.75s0 .82.61.82.84.45.5 1-.11 1 .5 1 .84.45.5 1-.11 1 .5 1 .84.45.5 1-.19 1 .33 1c.53 0 1.68 1.83 2.58 4.06.89 2.23 2.5 5 3.57 6.15s1.71 2.47 1.43 2.94c-.29.47-.02.85.59.85s.84.45.5 1-.15 1 .42 1 1.32 1.12 1.67 2.5c.34 1.38 1.05 2.5 1.58 2.5.52 0 .67.45.33 1s-.11 1 .5 1 .84.45.5 1-.22 1 .27 1c.5 0 .92.56.94 1.25.03.69.36 1.98.73 2.88.83 1.99-3.93 3.54-5.9 1.91-.69-.58-3.1-1.18-5.35-1.33s-4.41-.59-4.8-.99c-.4-.4-1.93-.72-3.4-.72-1.48 0-4-.66-5.61-1.46s-4.94-1.71-7.4-2.02c-2.47-.31-4.63-1-4.81-1.54-.19-.54-1.43-.98-2.77-.98-1.33 0-3.21-.39-4.16-.88-2.65-1.33-9.44-3.41-12.18-3.71-1.34-.15-3.37-.74-4.5-1.32-2.1-1.06-20.73-7.09-21.91-7.09-1.05 0-.74 3.83.37 4.51.56.35.75 1.05.44 1.56-.32.51-.07.93.54.93s.84.45.5 1-.11 1 .5 1 .84.45.5 1-.11 1 .5 1 .86.41.55.92.09 1.58.89 2.38c.81.8 1.19 1.74.85 2.08s-.07.62.6.62c.68 0 .95.45.61 1s-.11 1 .5 1 .86.41.55.92.14 1.63 1.01 2.5 1.29 1.58.94 1.58.06.71.93 1.57c.86.87 1.57 2.22 1.57 3 0 .79.52 1.43 1.17 1.43.64 0 .89.27.56.61-.34.33.25 1.52 1.3 2.65 1.04 1.12 1.66 2.42 1.38 2.89-.29.47-.05.85.53.85s1.06.68 1.06 1.5.45 1.5 1 1.5 1 .68 1 1.5.4 1.5.88 1.5c.49 0 1.16.79 1.5 1.75s.87 2.26 1.16 2.88c1.17 2.43-14.48 3.75-45.29 3.82l-21.25.05.22 2.75c.11 1.51.59 2.75 1.05 2.75.47 0 .57.45.23 1s-.11 1 .5 1 .84.45.5 1-.14 1 .44 1 .95.34.81.75c-.13.41.99 2.37 2.5 4.34 1.51 1.98 2.75 4.07 2.75 4.64s1.15 1.79 2.54 2.71c1.4.91 2.95 2.71 3.43 3.99.49 1.27 3.05 4.04 5.71 6.15 4.82 3.83 8.26 7.37 8.3 8.55.01.34-1.33 1.19-2.98 1.87s-3 1.64-3 2.12-1.12.88-2.5.88-2.5.48-2.5 1.06-.37.83-.83.55c-1.15-.71-19.86 6.24-24.4 9.07-2.05 1.28-4.14 2.32-4.64 2.32-.49 0-1.64 1.13-2.54 2.51-1.97 3-.97 5.57 3.2 8.22 1.49.95 2.94 1.99 3.21 2.3.27.32 3.76 2.75 7.73 5.4 4.33 2.88 6.97 5.27 6.57 5.94-.36.62-1.68 2.77-2.92 4.77-1.25 2-1.99 3.91-1.66 4.25.34.34.06.61-.61.61-.68 0-.95.45-.61 1s.11 1-.5 1-.84.45-.5 1 .11 1-.5 1-.84.45-.5 1 .11 1-.5 1-.86.42-.54.93c.31.51.11 1.22-.46 1.57s-.77 1.06-.46 1.57c.32.51.16.93-.34.93-1.07 0-4.69 10.85-3.89 11.64.29.3 3.04.01 6.1-.62 3.06-.64 6.02-.87 6.58-.53.63.4 1.01 9.23 1.02 23.82 0 12.75.29 26.23.64 29.94m168.85 5.82c16.97 1.46 62.47-.13 69.7-2.44 7.47-2.39 31.16-4.01 59.3-4.05 26.83-.05 41.66 1.19 48.36 4.03 2 .85 6.9 1.8 10.89 2.11l7.25.57v-13.51c0-14.49-1.47-25.15-5.68-41.28-8.8-33.66-26.59-53.5-55.47-61.87-19.79-5.74-30.69-4.7-76.78 7.32-21.46 5.6-34.33 5.1-62.15-2.44-21.94-5.94-31.51-7.51-45.7-7.51-10.44 0-14.83.47-22.55 2.43-33.89 8.6-57.07 35.79-63.58 74.57-1.34 7.97-3.07 28.4-3.08 36.4l-.01 5.9 8.25-.65c4.54-.35 11.4-1.55 15.24-2.65 3.85-1.1 13.3-2.51 21-3.13 24.05-1.93 79.56.84 85.65 4.27 1.3.73 5.51 1.6 9.36 1.93M295.85 753.31c4.59 3.68 8.69 6.69 9.11 6.69s-.93-6.89-3.01-15.32-4.1-17.54-4.51-20.25c-.66-4.45-1.62-5.86-9.72-14.43-29-30.65-53.25-73.42-65.23-115.03-9.03-31.38-11.91-54.47-11.2-89.97.67-33.75 4.14-55.46 13.35-83.5 11.5-35.02 33.73-73.04 57.14-97.68l5.39-5.68-4.05-5.36c-2.23-2.95-5.8-9.1-7.95-13.67l-3.91-8.31-8.77 9.85c-29.82 33.47-52.06 73.15-65.92 117.58-14.39 46.11-17.35 97.6-8.56 149.27 8.36 49.21 27.7 93.86 58.57 135.2 9.75 13.07 35.8 39.82 49.27 50.61m420.47 1.18c-.2.65-.35 1.13-.2 1.26.43.36 3.27-2.12 14.32-11.73 46.79-40.72 82.62-103.96 95.47-168.52 5.3-26.62 7.51-65.11 5.18-90.16-3.69-39.67-14.08-75.64-32.18-111.34-14.7-29-30.81-52.3-52.04-75.25-8.7-9.4-10.87-11.11-10.87-8.55 0 3.3-5.33 17.98-8.33 22.96l-3.42 5.66 5.46 5.34c11.6 11.35 24.6 28.48 36.18 47.66 25.42 42.09 38.33 89.61 38.25 140.74-.1 60.67-16.16 113.49-49.73 163.54-8.84 13.18-16.42 22.89-24.59 31.46l-5.78 6.06-2.56 14.89c-2.57 14.91-4.02 22.25-5.16 25.98M443.84 531.47c-5.39 1.22-13.37 1.5-40.04 1.4-34.12-.13-42.04-.63-51.13-3.28-6.24-1.81-9.27-4.43-11.83-10.21-6.92-15.66-12.38-63.2-8.53-74.33 2.96-8.58 10.24-9.4 78.69-8.83 47.52.4 52.85.6 56.2 2.2 6.16 2.93 7.58 10.71 5.32 29.13-2.16 17.55-4.94 30.74-8.95 42.38-5.84 16.98-7.46 18.75-19.73 21.54m208 .56c-6.24.52-24.62.91-40.84.88-24.53-.05-30.68-.35-36.5-1.8-12.3-3.05-13.07-3.87-19.11-20.19-9.52-25.74-14.21-58.78-9.64-67.92.5-.99.91-1.84 1.48-2.55 3.18-3.95 11.29-3.92 66.27-3.93 52.15-.02 58.56.15 63.57 1.71 8.82 2.73 9.31 3.7 9.76 19.1.32 10.93-.07 15.83-2.26 28.68-3.44 20.1-4.98 25.88-9.1 34.04-4.49 8.93-7.95 10.68-23.63 11.98m-36.27 167.76c1.61 6.71 3.19 12.21 3.51 12.21.67 0 5.12-8.92 6.74-13.5 3.93-11.09 4.8-30.91 1.79-41-3.62-12.12-9.31-21.29-19.57-31.5-12.81-12.75-24.77-19.62-44.54-25.59-7.75-2.34-10.74-2.71-21.5-2.7-10.17.02-13.81.44-19.5 2.26-10.58 3.39-11.34 3.41-21.53.37-17.36-5.17-37.56-3.26-60.41 5.69-13.32 5.22-23.52 11.95-32.06 21.14-12.65 13.61-19.5 30.4-19.5 47.78 0 10.57 1.84 18.23 6.75 28.05 5.02 10.03 6.37 9.84 7.94-1.1 1.6-11.24 4.4-18.48 10.73-27.78 5.9-8.68 14-15.72 23.84-20.72 8.6-4.37 15.91-6 32.74-7.3 18.1-1.39 27.25-4.24 36.14-11.23 2.01-1.58 3.86-2.87 4.12-2.87s3.48 2.01 7.14 4.47c7.43 4.98 16.37 8.11 27.6 9.66 26.12 3.61 27.4 3.89 35.92 8.01 6.54 3.17 10.14 5.8 16.06 11.72 9.6 9.6 13.64 17.4 17.59 33.93M364.33 519c2.29.48 19.69.76 38.67.62 29.73-.22 35.12-.49 38.95-1.96 6.05-2.33 7.65-3.99 10.13-10.55 2.57-6.78 8.92-43.26 8.92-51.23v-5.7l-3.75-.55c-6.23-.9-108.58-1.19-111-.31-2.13.77-2.25 1.34-2.25 11.04 0 17.86 4.64 46.39 8.5 52.29 1.85 2.82 6.27 5.19 11.83 6.35m215.67-.53c6.37 1.98 67.22 2.11 74.55.16 6.46-1.72 9.09-3.15 10.93-5.96 3.09-4.71 8.52-38.9 8.52-53.62v-7.76l-6.94-1.14c-7.54-1.25-93.93-1.66-105-.5l-6.23.65.68 7.1c1.55 16.13 9.01 48.48 12.48 54.08 2.17 3.51 4.41 4.93 11.01 6.99m55 120.41c0 2.33 3.13.93 10.69-4.77 21.07-15.88 29.68-30.9 35.3-61.55 2.46-13.43 2.58-16.99.52-16.2-.81.31-6.55 1.33-12.75 2.27-9.21 1.39-19.19 1.72-54.88 1.79l-43.62.08-.63 7.41c-.4 4.66-1.57 9.45-3.15 12.9-1.38 3.02-2.39 5.6-2.24 5.74.14.13 3.44 1.18 7.32 2.33 16.3 4.83 36.41 16.92 48.14 28.94 6.26 6.42 15.3 18.86 15.3 21.06m-259.63-2.76 6.97 4.9 2.61-4.76c12.29-22.46 37.94-40.98 66.9-48.29 3.96-1 4.21-1.25 2.87-2.78-3.62-4.14-5.04-8.75-5.13-16.69l-.09-8-27.5.31c-39.56.45-70.9-1.27-81.39-4.46-1.78-.54-1.85-.02-1.35 9.79 1.11 21.73 9.83 44.23 22.39 57.8 3.71 4.01 9.89 9.49 13.72 12.18m93.02-54.03c1.71 1.05 4.52 1.9 6.23 1.91 2.68 0 3.22-.43 3.73-3 1.2-6 11.35-9.24 15.25-4.86 2.68 3.02 13.27 7.86 17.2 7.86 4.04 0 8.5-2.2 13.45-6.64 2.72-2.43 4.7-3.36 7.18-3.36 4.02 0 9.28 3.93 9.75 7.28.69 4.81 10.67 2.83 13.52-2.67 2.11-4.07 4.27-12.29 4.29-16.27.01-2.76-.83-3.76-6.46-7.78-11.53-8.23-18.56-20.47-28.85-50.26-6.97-20.19-9.86-26.06-13.2-26.89-4.78-1.2-7.32 2.91-13.03 21.09-10.16 32.34-21.81 52.56-33.83 58.69l-3.89 1.99.64 6.1c.8 7.68 3.99 14.36 8.02 16.81m-31.97 120.53c9.81 4.56 24.35 2.7 31.02-3.97 2.21-2.21 2.34-2.77 1.28-5.58-.84-2.23-.87-3.6-.11-4.81.97-1.54 4.65-1.67 42.46-1.57 33.89.09 42.09 0 43.05 2.59.34.92-.25 2.2-.92 3.94-1.2 3.14-1.1 3.42 2.19 6.47 1.9 1.75 5.39 3.71 7.75 4.35 5.79 1.56 17.48.81 22.05-1.42 5.97-2.9 7.31-5.79 7.31-15.81 0-8.57-.05-8.75-3.5-12.38-1.92-2.03-6.19-5.46-9.48-7.61-5.24-3.43-6.46-3.84-9.86-3.26-5.23.88-113.11.88-118.34-.01-4.56-.77-7.52.37-15.17 5.83-5.6 4-7.03 6.91-7.79 15.91-.85 10.02 1.02 14.05 8.06 17.33m283.23-131.37c.35 3.71.93 6.75 1.28 6.75 1.38 0 7.41-11.32 10.7-20.07 4.19-11.13 10.95-38.1 12.35-49.25.56-4.47 1.02-15.18 1.02-23.8 0-18.43-1.84-26.56-7.22-31.94-2.92-2.92-3.55-3.13-8-2.6-2.65.31-5.22.81-5.7 1.11-.47.29-1.17 5.15-1.54 10.79-.38 5.64-.9 11.02-1.16 11.95-.37 1.33.31 1.75 3.22 2 4.11.35 6.55 2.92 4.89 5.16-.54.74-2.39 3.2-4.1 5.46-3.4 4.48-3.28 3.71-5.39 35.19-1.12 16.66-1.28 39.42-.35 49.25m-420.81 3c.81.96 1.85 1.75 2.31 1.75 2.7 0-1.6-74.21-4.77-82.5-.84-2.2-2.9-6.14-4.57-8.76-3.74-5.87-2.82-7.74 3.81-7.74 4.34 0 4.38-.03 4.38-3.52 0-2.06-1.83-7.42-4.43-13-4.38-9.37-4.47-9.48-8-9.48-7.85 0-9.66 5.31-10.3 30.21-.54 20.83.03 24.91 7.75 55.84 5.4 21.64 9.08 31.55 13.82 37.2m204.58 75.82-3.7 2.93 11.89-.05c11.42-.05 11.79-.12 9.39-1.71-1.38-.92-4.16-3.36-6.19-5.43l-3.69-3.77-2.01 2.55c-1.1 1.4-3.66 3.86-5.69 5.48"/><path fill="#006fee" d="M310.65 401.25c-.35-3.71-.64-17.19-.64-29.94-.01-14.59-.39-23.42-1.02-23.82.55.35 1.01 3.78 1.01 7.64 0 6.59.1 6.91 1.7 5.32 1.71-1.71 4.59-16.14 3.56-17.82-.29-.48-2.71-.62-5.37-.3-2.66.31-5.09.16-5.4-.34-1.22-1.99 8-17.84 15.86-27.25 2.18-2.61 3.79-4.91 3.56-5.11-.22-.2-4.79-2.71-10.15-5.58s-9.95-5.55-10.2-5.96c-.26-.41 8.57-3.76 19.62-7.45 20.59-6.87 36.82-13.37 36.82-14.75 0-.42-2.65-2.82-5.9-5.31-5.87-4.52-17.1-16.17-17.1-17.75 0-.46 3.05-.83 6.79-.83 11.11 0 53.42-6 55.4-7.85.38-.36-1.38-4.03-3.91-8.15-5.06-8.26-10.28-19.13-10.28-21.43 0-1.3.57-1.3 4.75-.01 16.71 5.15 39.74 9.6 57 11.02 7.09.58 8.25.46 8.25-.88 0-.85-2.48-7.84-5.5-15.52-5.65-14.35-6.42-17.4-4.25-16.73.69.21 12.27 3.98 25.75 8.39 26.7 8.72 42.58 13.24 43.45 12.38 1.8-1.81-.36-17.8-3.86-28.52-1.8-5.5-2.04-7.27-1.06-7.51.71-.17 4.46 1.29 8.33 3.24 18.8 9.47 35.39 21.15 50.34 35.44 5.25 5.02 9.8 9.13 10.1 9.13.71 0 3.26-8.11 4.71-15 .64-3.02 1.41-11.24 1.72-18.25s.9-12.75 1.31-12.75c1.37 0 7.27 7.38 13.18 16.5 3.21 4.95 10.81 18.81 16.88 30.81 6.44 12.71 11.53 21.65 12.22 21.43 1.76-.56 12.13-15.26 16.22-22.99 1.96-3.71 3.98-6.75 4.48-6.75 2.59 0 11.95 41.6 11.97 53.19.01 1.48.44 2.96.98 3.29 1.06.66 16.7-5.53 21.65-8.57 1.71-1.05 3.46-1.91 3.89-1.91 1.27 0-.22 20.94-2.05 28.8-.93 4.01-1.47 7.52-1.19 7.8s4.49-.19 9.37-1.04c4.87-.86 10.58-1.56 12.68-1.56 3.49 0 3.76.19 3.14 2.25-.89 2.99-4.95 10.14-9.1 16-1.85 2.62-3.36 5.26-3.36 5.88s1.07 4.11 2.37 7.75c1.31 3.64 3.18 10.33 4.15 14.87s2.15 8.25 2.62 8.25c1.87 0 .43-17.06-2.19-26.6 4.02 14.19 4.53 24.72 2.63 52.07-.87 12.47-1.58 24.21-1.58 26.1V408l-5.25-.01c-2.89-.01-6.88-.28-8.88-.61l-3.63-.6-.5-18.64c-1.01-38.26-10.49-65.6-29.64-85.5-8.32-8.65-16.62-14.61-27.26-19.58-22.58-10.55-44.74-11.21-78.84-2.35-30.72 7.99-34.89 8.63-47 7.24-5.77-.66-17.48-3-26-5.2-25.61-6.6-26.94-6.83-42.5-7.42-17.68-.67-26.02.39-39.68 5.05-23.2 7.92-41.44 24.04-53.52 47.31-10.32 19.88-14.02 35.29-15 62.44l-.6 16.64-4.49.61c-2.47.34-5.94.62-7.7.62h-3.22ZM416 159.09c0 .36 1.58 1.03 3.11 1.49-1.56-.39-3.11-1.05-3.11-1.49m5.92 1.9c.23-.05.65.31.97.82-.23-.36-.6-.66-.97-.82"/><path fill="#00aefc" d="M476.5 903.89c-31.08-2.35-68.92-10.53-98.85-21.36-33.56-12.15-74.55-34.54-101.63-55.53-22.62-17.53-44.33-38.09-61.3-58.05-2.08-2.45-4.81-5.57-6.06-6.95-4.34-4.76-9.66-11.84-9.66-12.87 0-.57-.57-1.39-1.28-1.83-1.86-1.17-7.72-8.9-7.72-10.19 0-.61-.45-1.11-1-1.11s-1-.59-1-1.31-.9-2.28-2-3.46-2-2.58-2-3.1c0-.53-.37-1.11-.82-1.3-1.05-.43-9.44-12.83-8.68-12.83.32 0-.36-1-1.5-2.23s-2.33-3.25-2.65-4.5c-.31-1.25-.99-2.27-1.52-2.27-.52 0-.67-.45-.33-1s.14-1-.44-1-1.06-.64-1.06-1.43c0-.78-.71-2.13-1.57-3-.87-.86-1.2-1.58-.75-1.59.45 0 .34-.34-.24-.75-1.46-1.01-11.55-21.16-18.16-36.23-7.92-18.1-17.23-46.06-19.64-59-.25-1.38-.72-3.17-1.04-4-1.24-3.25-7.61-40.43-8.18-47.74-.33-4.27-.89-11.36-1.26-15.76-1.23-14.85-.51-55.28 1.25-70.83 3.13-27.62 9.11-55.62 17.23-80.67.27-.83.42-1.67.34-1.89-.08-.21.23-.66.7-1 .47-.33 1.83-4 3.03-8.14s3.18-9.77 4.4-12.5c2.5-5.57 2.28-5.01 3.33-8.72.43-1.51 1.1-2.75 1.5-2.75s.73-.63.73-1.39c0-1.82 17.37-37.01 18.48-37.44.47-.19.85-.97.85-1.75s.38-1.42.83-1.42c.46 0 .84-.58.84-1.29 0-1.53 7.21-13.06 8.47-13.55.48-.18.62-.74.31-1.25-.31-.5-.09-.91.49-.91s1.06-.46 1.06-1.02c0-1.27 7.06-11.98 7.9-11.98.34 0 1.16-1.24 1.84-2.75.67-1.51 2.35-3.97 3.74-5.46 1.39-1.48 2.52-3.07 2.52-3.52 0-.46.79-1.57 1.75-2.48.96-.92 2.65-2.87 3.75-4.35 1.1-1.47 2.74-3.47 3.64-4.45.9-.97 2.02-2.45 2.5-3.3 2.17-3.85 23.99-26.88 34.36-36.26 6.32-5.72 12.4-11.22 13.5-12.23 26.4-24.19 73.4-51.98 112.86-66.73 13.89-5.19 43.56-14.03 50.14-14.93 1.1-.15 2.67-.54 3.5-.87 1.54-.6 11.8-2.52 18-3.36 1.92-.26 4.85-.69 6.5-.96s4.69-.69 6.75-.92c2.06-.24 5.44-.64 7.5-.9 27.24-3.38 53.01-3.71 84.75-1.07 3.3.28 7.69.49 9.75.48s3.75.44 3.75 1 1.91 1.01 4.25 1c8.19-.04 9.75.15 9.75 1.18 0 .63 1.15.79 2.9.4 1.6-.35 3.18-.2 3.51.33.32.53 1.44.74 2.48.47s2.16-.05 2.5.5 1.51.76 2.61.47c1.11-.29 2-.03 2 .58s.79 1.01 1.75.88c3.13-.4 11.25 1.34 11.25 2.42 0 .57.63.8 1.4.51.77-.3 1.71-.24 2.07.13.37.36 1.2.69 1.85.73 3.02.16 8.68 1.76 8.68 2.46 0 .43.56.72 1.25.65 2.2-.23 11.75 2.7 11.75 3.6 0 .48.44.6.97.27 3.85-2.38 86.03 36.37 86.03 40.55 0 .51.59.93 1.31.93s2.19.79 3.25 1.75c1.07.96 3.69 2.65 5.82 3.75 2.14 1.1 5.14 3.24 6.68 4.75 1.53 1.51 3.27 2.75 3.86 2.75.6 0 1.08.45 1.08 1s.51 1 1.13 1c2.61 0 26.51 20.52 41.37 35.52 14.34 14.48 18.34 18.79 26.26 28.27 1.25 1.49 3.65 4.28 5.34 6.21 6.09 6.95 20.9 27.13 20.9 28.48 0 .28.79 1.41 1.75 2.52 7.18 8.32 30.02 52.18 38.53 74 11.87 30.45 19.91 63.24 23.88 97.5 2.51 21.6 3.02 66.66.99 86-5.69 53.9-17.92 96.03-40.7 140.23-22.04 42.75-44.34 73.25-78.42 107.29-12.06 12.03-35.25 31.56-49.03 41.27-7.17 5.05-25.07 16.74-29 18.93-2.47 1.38-7.37 4.2-10.87 6.26-11.03 6.5-40.12 20.12-53.13 24.88-34.43 12.59-68.18 19.53-105 21.6-20.89 1.17-39.33 1.15-55.5-.07m41.24-7.85c3.07-.57 8.77-2.44 12.67-4.17s8.98-3.97 11.28-4.98c2.3-1.02 15.13-5.62 28.5-10.24 31.91-11.02 51.05-17.86 62.21-22.24 8.87-3.49 45.6-21.14 46.6-22.4.28-.35 3.42-2.37 7-4.48 3.58-2.12 9.33-5.81 12.8-8.19 3.46-2.39 6.69-4.34 7.16-4.34.48 0 1.02-.34 1.21-.75.41-.94 7.48-6.25 8.31-6.25.73 0 3.06-1.86 5.31-4.25.91-.96 1.96-1.75 2.33-1.75s1.96-1.1 3.53-2.43c1.57-1.34 6.23-5.21 10.35-8.6 19.1-15.69 30.26-26.66 46.5-45.7 1.65-1.93 4.01-4.61 5.25-5.94s2.25-2.85 2.25-3.37.9-1.51 2-2.19c1.1-.69 2-1.58 2-1.98 0-1.19 6.32-9.79 7.19-9.79.45 0 .81-.47.81-1.04 0-1.27 12.01-19.33 13.17-19.79.46-.19.83-.74.83-1.23s3.3-6.64 7.34-13.66c11.63-20.26 20.77-40.54 27.59-61.28 1.72-5.22 3.41-10.17 3.76-11s.73-1.84.85-2.25c.11-.41.33-1.09.49-1.5.15-.41.34-1.2.43-1.75.4-2.64 2.87-12.12 3.39-13 .33-.55.69-1.45.81-2s.5-2.12.83-3.5.8-3.85 1.04-5.5.94-5.44 1.56-8.41c1.42-6.87 3.77-21.37 4.3-26.59.23-2.2.74-6.92 1.15-10.5.4-3.58.69-18.65.64-33.5-.08-27.45-.47-34.7-2.73-51.5-.33-2.48-.73-5.62-.87-7-.15-1.38-.4-2.73-.55-3-.16-.27-.42-1.62-.58-3-.17-1.38-.57-3.85-.91-5.5-.33-1.65-.65-3.67-.71-4.5-.05-.83-.46-1.96-.89-2.52-.44-.55-1.04-2.8-1.34-5-.76-5.6-1.04-6.8-1.98-8.3-.45-.72-.55-1.58-.23-1.9.33-.33.19-1.09-.3-1.69-.5-.6-1.15-2.44-1.45-4.09-.83-4.59-4.86-16.81-11.13-33.7-6.46-17.43-6.75-18.29-6.32-18.32.17-.02-.25-.69-.94-1.5-.69-.82-3.91-6.88-7.17-13.48s-9.11-17.28-13-23.74c-3.9-6.46-7.08-12.16-7.08-12.67s-.35-1.07-.77-1.26c-1.06-.45-10.7-13.92-11.51-16.08-.36-.96-1.12-1.75-1.69-1.75s-1.03-.69-1.03-1.53-.67-1.79-1.5-2.11c-.83-.31-1.5-1.1-1.5-1.74 0-.65-.79-1.91-1.75-2.8s-3-3.13-4.53-4.97c-1.54-1.84-4.24-5.08-6-7.2-4.27-5.11-29.3-30.06-35.4-35.28-11.64-9.98-20.7-17.06-31.82-24.88-3.85-2.71-7.22-5.16-7.5-5.46-.28-.29-1.62-1.18-3-1.97-1.38-.8-7.09-4.27-12.71-7.73-11.57-7.11-40.76-21.96-51.59-26.23-3.96-1.56-12.81-4.74-19.66-7.06-6.85-2.33-13.44-4.97-14.64-5.88-1.19-.91-3.18-2.34-4.41-3.16s-2.74-1.95-3.36-2.5c-7.28-6.46-26.57-16.51-36.82-19.18-6.25-1.64-6.91-1.64-10.17-.09-3.23 1.54-3.6 2.22-5.18 9.29-1.07 4.84-2.27 7.85-3.27 8.24-1.55.59-13.67-1.32-26.19-4.15-3.58-.81-14.6-3.29-24.5-5.53-18.92-4.27-24.14-4.8-29.42-2.96-3.78 1.32-5.08 4.09-5.08 10.83v4.82l-5.55.69c-6.07.76-11.25.18-18.95-2.12-10.32-3.09-23.25-5.48-30.5-5.65-13.63-.31-17.96 4.15-15.04 15.51 1.62 6.34.97 7.05-9.51 10.46l-8.35 2.72-12.3-1.7c-19.26-2.65-25.85-1.97-29.85 3.1-1.89 2.39-2.07 3.52-1.51 9.28.28 2.8.54 4.48.07 5.93-.84 2.56-3.99 4.37-13.51 10.33-46.22 28.94-80.63 62.97-111.77 110.54-20.79 31.76-36.62 68.08-46.06 105.7-7.96 31.72-11.12 54.48-11.86 85.48-.76 31.64 1.16 54.17 7.15 83.96 1.38 6.88 2.52 13.65 2.53 15.05 0 1.4.42 2.98.93 3.5.5.52 2.11 5.35 3.56 10.73 8.09 29.87 25.5 67.3 44.77 96.22 28.94 43.45 56.9 73.16 96 102.02 3.71 2.74 6.75 5.32 6.75 5.73s.67.75 1.5.75 1.5.45 1.5 1 .46 1 1.02 1c1.01 0 22.07 13.17 25.06 15.68.87.72 2.1 1.32 2.73 1.32.64 0 4.1 1.8 7.69 4s6.97 4 7.5 4c1.31 0 12.36 5.31 13.08 6.29.32.43 1.69.98 3.04 1.23 1.35.24 6.04 2 10.42 3.91s16.51 6.25 26.96 9.65c10.45 3.39 19.67 6.4 20.5 6.68s2.62.65 4 .84c3.8.51 26.39 8.41 27.03 9.46.32.5 3 1.38 5.97 1.94s5.75 1.58 6.18 2.26c.44.68.8.85.8.38.01-.48 1.04-.2 2.28.61 1.25.82 3.73 1.81 5.5 2.2 1.78.39 3.24 1.08 3.24 1.52 0 .93 2.37 1.99 5.98 2.68 1.36.26 2.75.91 3.08 1.45.33.53 1.85 1.2 3.37 1.47 1.52.28 4.12 1.05 5.77 1.72 4.13 1.67 11.87 1.98 18.54.75M310 355.13c0-3.86-.46-7.29-1.01-7.64-.56-.34-3.52-.11-6.58.53-.76.16-1.5.29-2.19.4q.405-.18.78-.42c1.27-.82 1.21-.97-.34-.98-1.05-.01-2.09-.97-2.42-2.22-.53-2.01-.61-2.1-1.26-.45.97-3.33 2.57-7.35 3.22-7.35.5 0 .66-.42.34-.93-.31-.51-.11-1.22.46-1.57s.77-1.06.46-1.57c-.32-.51-.07-.93.54-.93s.84-.45.5-1-.11-1 .5-1 .84-.45.5-1-.11-1 .5-1 .84-.45.5-1-.07-1 .61-1c.67 0 .95-.27.61-.61-.33-.34.41-2.25 1.66-4.25 1.24-2 2.56-4.15 2.92-4.77.4-.67-2.24-3.06-6.57-5.94-3.97-2.65-7.46-5.08-7.73-5.4-.27-.31-1.72-1.35-3.21-2.3-4.17-2.65-5.17-5.22-3.2-8.22.9-1.38 2.05-2.51 2.54-2.51.5 0 2.59-1.04 4.64-2.32 4.54-2.83 23.25-9.78 24.4-9.07.46.28.83.03.83-.55s1.12-1.06 2.5-1.06 2.5-.4 2.5-.88 1.35-1.44 3-2.12 2.99-1.53 2.98-1.87c-.04-1.18-3.48-4.72-8.3-8.55-2.66-2.11-5.22-4.88-5.71-6.15-.48-1.28-2.03-3.08-3.43-3.99-1.39-.92-2.54-2.14-2.54-2.71s-1.24-2.66-2.75-4.64c-1.51-1.97-2.63-3.93-2.5-4.34.14-.41-.23-.75-.81-.75s-.78-.45-.44-1 .11-1-.5-1-.84-.45-.5-1 .24-1-.23-1c-.46 0-.94-1.24-1.05-2.75l-.22-2.75 21.25-.05c30.81-.07 46.46-1.39 45.29-3.82a40 40 0 0 1-1.16-2.88c-.34-.96-1.01-1.75-1.5-1.75-.48 0-.88-.68-.88-1.5s-.45-1.5-1-1.5-1-.68-1-1.5-.48-1.5-1.06-1.5-.82-.38-.53-.85c.28-.47-.34-1.77-1.38-2.89-1.05-1.13-1.64-2.32-1.3-2.65.33-.34.08-.61-.56-.61-.65 0-1.17-.64-1.17-1.43 0-.78-.71-2.13-1.57-3-.87-.86-1.28-1.57-.93-1.57s-.07-.71-.94-1.58-1.32-1.99-1.01-2.5.06-.92-.55-.92-.84-.45-.5-1 .07-1-.61-1c-.67 0-.94-.28-.6-.62s-.04-1.28-.85-2.08c-.8-.8-1.2-1.87-.89-2.38s.06-.92-.55-.92-.84-.45-.5-1 .11-1-.5-1-.84-.45-.5-1 .11-1-.5-1-.86-.42-.54-.93c.31-.51.12-1.21-.44-1.56-.65-.4-1.03-1.89-1.02-3.05.03.71.29 1.5.61 1.81.79.8 3.32-1.54 2.73-2.52-.02-.03-.04-.06-.06-.08 5.49 1.59 17.61 5.58 19.28 6.42 1.13.58 3.16 1.17 4.5 1.32 2.74.3 9.53 2.38 12.18 3.71.95.49 2.83.88 4.16.88 1.34 0 2.58.44 2.77.98.18.54 2.34 1.23 4.81 1.54 2.46.31 5.79 1.22 7.4 2.02s4.13 1.46 5.61 1.46c1.47 0 3 .32 3.4.72.39.4 2.55.84 4.8.99s4.66.75 5.35 1.33c1.97 1.63 6.73.08 5.9-1.91-.37-.9-.7-2.19-.73-2.88-.02-.69-.44-1.25-.94-1.25-.49 0-.61-.45-.27-1s.11-1-.5-1-.84-.45-.5-1 .19-1-.33-1c-.53 0-1.24-1.12-1.58-2.5-.35-1.38-1.1-2.5-1.67-2.5s-.76-.45-.42-1 .11-1-.5-1-.88-.38-.59-.85c.28-.47-.36-1.79-1.43-2.94s-2.68-3.92-3.57-6.15c-.9-2.23-2.05-4.06-2.58-4.06-.52 0-.67-.45-.33-1s.11-1-.5-1-.84-.45-.5-1 .11-1-.5-1-.84-.45-.5-1 .11-1-.5-1-.89-.37-.61-.82-.29-2.14-1.27-3.75c-1.45-2.4-2.37-4.76-2.52-6.09.11.39.29.9.53 1.52.78 2.07 1.11 2.2 2.63 1.04.96-.74 1.91-1.45 2.13-1.59.15-.1-.33-.41-1.15-.79.5.18 1.01.36 1.51.54 2.06.74 3.75 1.65 3.75 2.03 0 .67 3.61 1.86 5.39 1.78.49-.02 1.16.4 1.5.94.33.55 1.51 1.15 2.61 1.34s2.23.64 2.5 1 1.4.81 2.5 1 2.27.71 2.59 1.15 1.56.87 2.75.96 2.16.55 2.16 1.01c0 .47.41.59.92.28 1-.62 13.2 4.31 14.19 5.74.34.48.91.81 1.27.72 1.66-.41 6.62 1.27 6.62 2.24 0 .59.28.8.63.45s1.57.03 2.72.84c1.15.8 3.31 1.46 4.8 1.46s3.44.73 4.33 1.62 1.84 1.39 2.12 1.11 4.42.57 9.2 1.88 9.04 2.39 9.48 2.39c1.05 0 .43-3.96-1.04-6.62-.64-1.16-.89-2.4-.54-2.75s.11-.63-.53-.63c-.65 0-1.17-.68-1.17-1.5s-.48-1.5-1.06-1.5-.78-.45-.44-1 .14-1-.44-1-.98-.34-.89-.75c.29-1.24-2.42-6.25-3.39-6.25-.49 0-.62-.45-.28-1s.11-1-.5-1-.84-.45-.5-1 .11-1-.5-1-.84-.45-.5-1 .11-1-.5-1-.84-.45-.5-1 .18-1-.35-1c-.24 0-.62-.43-1.03-1.14.11.08.27.14.45.14.31 0 .32-.79.02-1.75-.9-2.9.87-4.56 4.33-4.05 1.73.26 2.77.09 2.32-.36s-2.97-1.12-5.6-1.48l-2.65-.36c3.87.04 13.55 2.26 14.17 3.26.37.59 2.05 1.07 3.75 1.07s3.09.36 3.09.81c0 .44.67.54 1.5.22.83-.31 1.5-.09 1.5.5s.67.82 1.5.5c.83-.31 1.5-.08 1.5.53s1.09 1.11 2.42 1.11 2.57.47 2.76 1.04c.19.58 1.36 1.12 2.58 1.22 1.23.09 2.24.51 2.24.92 0 .42.67.5 1.5.18.83-.31 1.5-.09 1.5.49 0 .59 1.78 1.55 3.96 2.14 2.17.58 4.65 1.76 5.5 2.61.84.85 1.54 1.25 1.54.9s.71.06 1.57.93c.87.86 2.22 1.57 3 1.57.79 0 1.43.4 1.43.89s1.01 1.15 2.25 1.47 3.47 1.72 4.96 3.11c1.48 1.39 3.17 2.53 3.75 2.53.57 0 1.04.45 1.04 1s.43 1 .95 1 2.16 1.12 3.64 2.5c1.49 1.38 3.31 2.5 4.06 2.5.74 0 1.35.45 1.35 1s.63 1 1.39 1c.77 0 1.66.68 1.98 1.51.31.83.92 1.43 1.35 1.34s1.61.19 2.63.64c2.74 1.19 3.83-1.21 3.17-6.99-.32-2.75-.8-7.89-1.06-11.41-.27-3.53-.92-6.94-1.46-7.59s-.71-1.46-.37-1.8.27-1.42-.15-2.41c-.42-.98-.9-3.7-1.07-6.04-.36-4.87.68-5.32 5.89-2.55 1.76.93 3.74 1.78 4.39 1.9 1.37.24 8.65 5.53 9.14 6.65.19.41.93.75 1.65.75s1.57.68 1.88 1.5c.32.82 1.04 1.5 1.61 1.5 1.3 0 2.59 1.16 15.5 13.86 5.79 5.69 10.53 10.98 10.53 11.75 0 .76.45 1.39 1 1.39s1 .64 1 1.42.4 1.56.89 1.75c1.08.4 4.68 6.25 6.21 10.08.6 1.51 1.5 2.75 2 2.75.49 0 .9.48.9 1.07 0 .89 3.38 6.02 6.13 9.32.41.49 1.42.2 2.26-.64.83-.83 1.24-1.79.9-2.13s-.07-.62.6-.62c.68 0 .97-.42.65-.93-.31-.51-.11-1.22.46-1.57s.77-1.06.46-1.57c-.32-.51-.07-.93.54-.93s.86-.42.54-.93c-.31-.51-.11-1.22.46-1.57s.77-1.06.46-1.57c-.32-.51-.1-.93.48-.93s.96-.34.85-.75c-.12-.41.31-1.7.96-2.87.65-1.16.9-2.4.55-2.75s-.2-.63.32-.63c.53 0 1.03-.97 1.12-2.16s.69-2.49 1.34-2.89.87-1.23.49-1.84-.16-1.11.48-1.11.91-.66.6-1.47-.06-1.78.56-2.16c1.03-.64 2.3.56 7.11 6.78 3.15 4.07 9.62 18.49 10.79 24.03.62 2.93 1.48 5.77 1.91 6.32s2.39 7.48 4.36 15.39c1.97 7.92 3.82 14.65 4.13 14.95 1.26 1.26 7.69-3.45 15.16-11.09 2.01-2.06 3.98-3.75 4.38-3.75 1.57 0 2.3 7.25 2.37 23.5.06 13.22-.34 18.95-1.83 25.76-1.05 4.82-1.66 9-1.36 9.3.55.55 2.14.61 6.77.25 1.38-.11 5.09-.11 8.25 0 4.85.16 5.75.48 5.75 2.03 0 2.23-5.1 12.66-9.8 20.04-3.13 4.91-3.34 5.71-2.39 9 2.71 9.43 4.23 27.12 2.33 27.12-.47 0-1.65-3.71-2.62-8.25s-2.84-11.23-4.15-14.87c-1.3-3.64-2.37-7.13-2.37-7.75s1.51-3.26 3.36-5.88c4.15-5.86 8.21-13.01 9.1-16 .62-2.06.35-2.25-3.14-2.25-2.1 0-7.81.7-12.68 1.56-4.88.85-9.09 1.32-9.37 1.04s.26-3.79 1.19-7.8c1.83-7.86 3.32-28.8 2.05-28.8-.43 0-2.18.86-3.89 1.91-4.95 3.04-20.59 9.23-21.65 8.57-.54-.33-.97-1.81-.98-3.29-.02-11.59-9.38-53.19-11.97-53.19-.5 0-2.52 3.04-4.48 6.75-4.09 7.73-14.46 22.43-16.22 22.99-.69.22-5.78-8.72-12.22-21.43-6.07-12-13.67-25.86-16.88-30.81-5.91-9.12-11.81-16.5-13.18-16.5-.41 0-1 5.74-1.31 12.75s-1.08 15.23-1.72 18.25c-1.45 6.89-4 15-4.71 15-.3 0-4.85-4.11-10.1-9.13-14.95-14.29-31.54-25.97-50.34-35.44-3.87-1.95-7.62-3.41-8.33-3.24-.98.24-.74 2.01 1.06 7.51 3.5 10.72 5.66 26.71 3.86 28.52-.87.86-16.75-3.66-43.45-12.38-13.48-4.41-25.06-8.18-25.75-8.39-2.17-.67-1.4 2.38 4.25 16.73 3.02 7.68 5.5 14.67 5.5 15.52 0 1.34-1.16 1.46-8.25.88-17.26-1.42-40.29-5.87-57-11.02-4.18-1.29-4.75-1.29-4.75.01 0 2.3 5.22 13.17 10.28 21.43 2.53 4.12 4.29 7.79 3.91 8.15-1.98 1.85-44.29 7.85-55.4 7.85-3.74 0-6.79.37-6.79.83 0 1.58 11.23 13.23 17.1 17.75 3.25 2.49 5.9 4.89 5.9 5.31 0 1.38-16.23 7.88-36.82 14.75-11.05 3.69-19.88 7.04-19.62 7.45.25.41 4.84 3.09 10.2 5.96s9.93 5.38 10.15 5.58c.23.2-1.38 2.5-3.56 5.11-7.86 9.41-17.08 25.26-15.86 27.25.31.5 2.74.65 5.4.34 2.66-.32 5.08-.18 5.37.3 1.03 1.68-1.85 16.11-3.56 17.82-1.6 1.59-1.7 1.27-1.7-5.32m139.74-209.31c.68.43 2.81.6 4.75.37 3.21-.37 3.5-.68 3.4-3.55l-.1-3.14-1.09 2.75c-.9 2.28-1.7 2.75-4.64 2.77-2.11 0-3.06.33-2.32.8m30.26 9.8v.02c-.45-.81-.93-1.92-1.35-3.14-.3-.9-.54-1.62-.71-2.2l.49 1.18c.86 2.07 1.57 3.93 1.57 4.14m-133.98 27.51c.05-.65.25-1.13.63-1.13.08 0 .25.03.5.09-.57.16-1.04.52-1.13 1.04m-49.24 165.62c-.25-.01-.41-.05-.47-.11s-.1-.18-.11-.34c.12.19.32.34.58.45m110.16-193.52c.1-.02.22-.01.36.04-.14-.02-.26-.04-.36-.04"/><path fill="#00c2fe" d="M580 518.47c-6.6-2.06-8.84-3.48-11.01-6.99-3.47-5.6-10.93-37.95-12.48-54.08l-.68-7.1 6.23-.65c11.07-1.16 97.46-.75 105 .5l6.94 1.14v7.76c0 14.72-5.43 48.91-8.52 53.62-1.84 2.81-4.47 4.24-10.93 5.96-7.33 1.95-68.18 1.82-74.55-.16M480 155.62c0-.21-.71-2.07-1.57-4.14l-1.58-3.77 4.79.65c2.63.36 5.15 1.03 5.6 1.48s-.59.62-2.32.36c-3.46-.51-5.23 1.15-4.33 4.05.3.96.29 1.75-.02 1.75s-.57-.17-.57-.38m-30.26-9.8c-.74-.47.21-.8 2.32-.8 2.94-.02 3.74-.49 4.64-2.77l1.09-2.75.1 3.14c.1 2.87-.19 3.18-3.4 3.55-1.94.23-4.07.06-4.75-.37M296.07 347.75c.04-.69.41-2.13.83-3.2.73-1.85.79-1.84 1.34.25.33 1.25 1.37 2.21 2.42 2.22 1.55.01 1.61.16.34.98-2.13 1.38-5.01 1.23-4.93-.25m111.06-189.89c-1.14-3.01-.98-3.14 2.37-1.86 1.53.58 2.6 1.17 2.39 1.31-.22.14-1.17.85-2.13 1.59-1.52 1.16-1.85 1.03-2.63-1.04m-60.52 27.41c-.34-.33-.61-1.2-.61-1.94 0-1.41 2.56-1.85 3.34-.58.59.98-1.94 3.32-2.73 2.52"/><path fill="#81a8d3" d="M359 547.03c-18.07-1.27-28.5-5.16-31.96-11.95-3.58-7.03-10.85-30.36-12.95-41.58-3.45-18.44-6.61-53.63-5.92-65.99l.33-5.99 5-.75c2.75-.4 66.2-.92 141-1.15 138.08-.41 250.57.39 253.75 1.81 1.51.68 1.75 2.26 1.75 11.54 0 18.53-4.12 54.38-8.05 70.03-2.41 9.59-7.02 23.18-10.49 30.9-2.23 4.99-3.43 6.39-6.83 8.03-9.53 4.6-14.91 5.12-58.63 5.75-53.23.77-63.48-.47-72.45-8.74-5.93-5.47-9.46-12.71-15.9-32.58-9.84-30.4-13.31-37.55-19.85-40.96-5.39-2.8-15.48-1.22-20.81 3.26-4.38 3.68-6.18 7.74-14.1 31.63-11.44 34.57-15.19 40.4-28.85 44.93-6.21 2.05-8.49 2.17-45.54 2.35-21.45.1-43.73-.14-49.5-.54m84.84-15.56c12.27-2.79 13.89-4.56 19.73-21.54 4.01-11.64 6.79-24.83 8.95-42.38 2.26-18.42.84-26.2-5.32-29.13-3.35-1.6-8.68-1.8-56.2-2.2-68.45-.57-75.73.25-78.69 8.83-3.85 11.13 1.61 58.67 8.53 74.33 2.56 5.78 5.59 8.4 11.83 10.21 9.09 2.65 17.01 3.15 51.13 3.28 26.67.1 34.65-.18 40.04-1.4m208 .56c15.68-1.3 19.14-3.05 23.63-11.98 4.12-8.16 5.66-13.94 9.1-34.04 2.19-12.85 2.58-17.75 2.26-28.68-.45-15.4-.94-16.37-9.76-19.1-5.01-1.56-11.42-1.73-63.57-1.71-54.98.01-63.09-.02-66.27 3.93-.57.71-.98 1.56-1.48 2.55-4.57 9.14.12 42.18 9.64 67.92 6.04 16.32 6.81 17.14 19.11 20.19 5.82 1.45 11.97 1.75 36.5 1.8 16.22.03 34.6-.36 40.84-.88"/><path fill="#901f01" d="M701.73 541.1c-2.03 5.33-2.16 7.86-2.54 32.9-.29 19.64.04 32.64 1.15 45.5 2.62 30.3 2.85 38.18 1.75 61-1.06 22.23-2.52 33.41-6.26 48-1.13 4.4-2.57 11.31-3.21 15.36l-1.16 7.36-3.48-6.79c-1.91-3.73-3.93-6.93-4.49-7.11-.55-.18-2.52 4.29-4.37 9.93-3.64 11.11-7.12 18.57-12.82 27.51-6.25 9.81-16.12 22.4-24.04 30.68l-7.61 7.95-1.21-5.95c-1.2-5.83-4.26-13.48-5.38-13.4-.31.02-1.8 1.99-3.31 4.38-4.68 7.39-17.14 20.93-25.38 27.58-7.85 6.32-21.97 16-23.36 16-.85 0-1.99-8.49-2-14.88l-.01-4.37-7.28 6.91c-8.32 7.91-19.7 16.75-31.24 24.3-7.94 5.19-25.21 14.04-27.38 14.04-2.31 0-17.31-8.18-26.8-14.61-11.6-7.87-17.19-12.76-24.93-21.83-6.59-7.71-6.66-7.67-7.85 4.19-.4 3.99-.99 7.25-1.31 7.25-1.59 0-15.91-9.2-25.71-16.52-10.2-7.62-31.5-28.24-31.5-30.49 0-.55-.52-.99-1.15-.99-.82 0-.98 2.83-.59 10l.55 10-3.14-2.24c-6.73-4.79-18.66-17.9-25.14-27.64-6.73-10.1-14.15-25.36-18.68-38.37-1.29-3.71-2.65-6.75-3.02-6.75-.36 0-1.61 2.81-2.76 6.25-2.4 7.13-3.59 9.34-4.36 8.09-1.53-2.47-8.83-28.39-10.15-36.03-2.38-13.76-4.56-39.36-4.56-53.51 0-7.08.9-22.65 2.01-34.59 4.01-43.51 4.38-69.13 1.1-81.17.82 2.2 1.61 4.49 2.2 6.46.83 2.75 2.26 9.94 3.19 15.97 5.46 35.4 20.13 60.8 45.44 78.65 5.38 3.79 6.13 4.7 5.65 6.88-1.43 6.56-1.78 21.28-.68 28.81 2.24 15.32 7.44 27.5 15.25 35.77 5.7 6.02 9.02 7.68 14.46 7.24l3.88-.32 2.1-10.5c1.95-9.77 4.37-19 4.98-19 .14 0 2.89 2.63 6.1 5.84 7.77 7.77 14.57 10.5 26.32 10.55 10.92.05 17.05-2.03 25.2-8.57 3.47-2.77 7.31-5.43 8.53-5.9 1.23-.47 14.49-.66 29.47-.43 25.41.41 27.39.57 29.76 2.45 11.48 9.1 17.05 11.67 27.54 12.71 11.13 1.1 25.98-4.9 31.58-12.76 1.14-1.6 2.43-2.7 2.86-2.43 1.07.66 3.66 10.5 5.06 19.23 1.35 8.35 2.58 9.8 7.65 8.98 15.89-2.58 27.28-28.63 26.09-59.67-.26-6.88-.65-13.12-.86-13.88-.22-.82 3.56-4.4 9.21-8.73 11.29-8.64 23.43-21.03 28.92-29.53 2.16-3.34 5.25-9.51 6.87-13.72 3.68-9.57 7.92-29.95 8.78-42.26.59-8.26 1.12-10.25 4.5-16.68.56-1.06 1.09-2.11 1.57-3.1m-86.16 158.69c-3.95-16.53-7.99-24.33-17.59-33.93-5.92-5.92-9.52-8.55-16.06-11.72-8.52-4.12-9.8-4.4-35.92-8.01-11.23-1.55-20.17-4.68-27.6-9.66-3.66-2.46-6.88-4.47-7.14-4.47s-2.11 1.29-4.12 2.87c-8.89 6.99-18.04 9.84-36.14 11.23-16.83 1.3-24.14 2.93-32.74 7.3-9.84 5-17.94 12.04-23.84 20.72-6.33 9.3-9.13 16.54-10.73 27.78-1.57 10.94-2.92 11.13-7.94 1.1-4.91-9.82-6.75-17.48-6.75-28.05 0-17.38 6.85-34.17 19.5-47.78 8.54-9.19 18.74-15.92 32.06-21.14 22.85-8.95 43.05-10.86 60.41-5.69 10.19 3.04 10.95 3.02 21.53-.37 5.69-1.82 9.33-2.24 19.5-2.26 10.76-.01 13.75.36 21.5 2.7 19.77 5.97 31.73 12.84 44.54 25.59 10.26 10.21 15.95 19.38 19.57 31.5 3.01 10.09 2.14 29.91-1.79 41-1.62 4.58-6.07 13.5-6.74 13.5-.32 0-1.9-5.5-3.51-12.21m-112.15-49.72c2.03-1.62 4.59-4.08 5.69-5.48l2.01-2.55 3.69 3.77c2.03 2.07 4.81 4.51 6.19 5.43 2.4 1.59 2.03 1.66-9.39 1.71l-11.89.05Zm201.53-115.94c-.23.26-.6.93-1.06 1.87.07-.25.11-.43.11-.55 0-.8.39-1.45.86-1.45.03 0 .06.04.09.13m-387.99 7.34c-.48-.9-.83-1.45-.96-1.45.16 0 .5.55.96 1.45"/><path fill="#fa5d00" d="M495.86 877.64c-11.31-4.94-20.42-10.16-29.05-16.67l-7.7-5.79-.3 3.16c-.5 5.1-3.86 4.67-17.1-2.15-13.85-7.14-24.48-14.35-33.66-22.85-3.77-3.49-7.12-6.34-7.45-6.34s-.6 2.05-.6 4.55v4.55l-7.75-4.04c-22.55-11.75-44.79-34.94-53.01-55.27-1.51-3.72-2.98-6.77-3.28-6.78-.29 0-1.95 1.83-3.68 4.08l-3.14 4.1-2.04-3.99c-2.2-4.31-10.09-29.66-12.51-40.2-2.86-12.46-3.73-20.64-4.51-42.77-.43-12.24-1.05-22.53-1.38-22.86s-2.19.39-4.15 1.6l-3.55 2.19v-2.13c0-1.18 2.44-16.85 5.43-34.83 7.72-46.55 8.94-57 9.01-77.45.03-9.76.29-17.74.56-17.73s1.62 2.59 2.99 5.75c4.44 10.24 4.45 36.47.02 84.44-1.11 11.94-2.01 27.51-2.01 34.59 0 14.15 2.18 39.75 4.56 53.51 1.32 7.64 8.62 33.56 10.15 36.03.77 1.25 1.96-.96 4.36-8.09 1.15-3.44 2.4-6.25 2.76-6.25.37 0 1.73 3.04 3.02 6.75 4.53 13.01 11.95 28.27 18.68 38.37 6.48 9.74 18.41 22.85 25.14 27.64l3.14 2.24-.55-10c-.39-7.17-.23-10 .59-10 .63 0 1.15.44 1.15.99 0 2.25 21.3 22.87 31.5 30.49 9.8 7.32 24.12 16.52 25.71 16.52.32 0 .91-3.26 1.31-7.25 1.19-11.86 1.26-11.9 7.85-4.19 7.74 9.07 13.33 13.96 24.93 21.83 9.49 6.43 24.49 14.61 26.8 14.61 2.17 0 19.44-8.85 27.38-14.04 11.54-7.55 22.92-16.39 31.24-24.3l7.28-6.91.01 4.37c.01 6.39 1.15 14.88 2 14.88 1.39 0 15.51-9.68 23.36-16 8.24-6.65 20.7-20.19 25.38-27.58 1.51-2.39 3-4.36 3.31-4.38 1.12-.08 4.18 7.57 5.38 13.4l1.21 5.95 7.61-7.95c7.92-8.28 17.79-20.87 24.04-30.68 5.7-8.94 9.18-16.4 12.82-27.51 1.85-5.64 3.82-10.11 4.37-9.93.56.18 2.58 3.38 4.49 7.11l3.48 6.79 1.16-7.36c.64-4.05 2.08-10.96 3.21-15.36 3.74-14.59 5.2-25.77 6.26-48 1.1-22.82.87-30.7-1.75-61-1.11-12.86-1.44-25.86-1.15-45.5.39-26.31.52-27.77 2.86-33.74 1.35-3.42 2.73-6.24 3.06-6.25.34 0 .87 12.48 1.17 27.74.6 29.9 1.88 40.41 11.28 92.6 1.97 10.91 3.34 20.08 3.06 20.37-.29.29-2.54-.66-5-2.1s-4.67-2.62-4.92-2.62c-.24 0-.68 9.79-.98 21.75-.69 28.29-5.42 57.33-11.86 72.89-2.59 6.26-6.25 11.48-7.19 10.27-.18-.23-1.58-2.1-3.12-4.16-1.53-2.06-3.07-3.75-3.42-3.75s-1.64 2.59-2.87 5.75c-3.1 7.99-10.29 20.35-16.74 28.77-6.16 8.03-22.12 23.77-30.85 30.41-6.67 5.08-7.18 4.85-8.24-3.67-.36-2.89-.73-5.26-.82-5.26-.08 0-4.42 4.21-9.64 9.36-13.63 13.46-31.39 24.47-46.76 29l-5.29 1.56-.96-2.53c-.53-1.38-.96-3.17-.96-3.96 0-2.11-.47-1.89-7.54 3.53-8.82 6.75-18.7 12.51-29.47 17.15-11.87 5.12-17.38 5.22-28.13.53"/><path fill="#fe003b" d="M364.33 519c-5.56-1.16-9.98-3.53-11.83-6.35-3.86-5.9-8.5-34.43-8.5-52.29 0-9.7.12-10.27 2.25-11.04 2.42-.88 104.77-.59 111 .31l3.75.55v5.7c0 7.97-6.35 44.45-8.92 51.23-2.48 6.56-4.08 8.22-10.13 10.55-3.83 1.47-9.22 1.74-38.95 1.96-18.98.14-36.38-.14-38.67-.62"/><path fill="#fd0065" d="M472 959.88c-144.05-11.62-273.57-93.81-350.96-222.73C88.95 683.71 69.1 625.72 59.89 558.5c-2.56-18.7-3.81-82.49-2-102.21 2.33-25.48 11.08-66.58 19.94-93.79 13.29-40.76 36.14-86.93 59.48-120.16 30.99-44.13 74.78-87.58 117.19-116.29 56.37-38.15 121.78-63.28 190.17-73.07 30.92-4.42 89.09-4.66 120.33-.49 105.39 14.06 195.7 58.01 268.06 130.44 50.08 50.13 86.63 109.36 108.64 176.04 17.66 53.54 25.35 109.65 22.46 164.05-3.02 56.73-14.39 107.72-34.89 156.46C861.99 839.4 714.06 947.8 546.5 959.97c-16.29 1.19-59.29 1.13-74.5-.09m75-25.34c46.88-3.84 84.8-13.25 129.27-32.1C726.9 880.99 782.33 842.07 820 801.5c61.63-66.36 102.24-151.72 114.41-240.53 6.01-43.83 6.01-74.94.02-116.97-14.6-102.35-63.32-193.5-138.43-259.02-67.51-58.89-143.6-93.75-231-105.85-80.14-11.1-166.04 2.2-240.23 37.2-35.71 16.84-72.88 42.46-107.91 74.36-39.06 35.57-69.85 78.15-94.59 130.81-15.63 33.28-25.86 65.54-32.68 103-5.87 32.31-7.01 44.71-6.97 76 .06 58.61 7.85 103.43 26.59 152.97C146.74 752.72 220 836.52 313.87 887.53c67.65 36.77 151.55 53.69 233.13 47.01"/><path fill="#feb5b6" d="M479.5 407.07c-3.85-.33-8.06-1.2-9.36-1.93-6.09-3.43-61.6-6.2-85.65-4.27-7.7.62-17.15 2.03-21 3.13-3.84 1.1-10.7 2.3-15.24 2.65l-8.25.65.01-5.9c.01-8 1.74-28.43 3.08-36.4 6.51-38.78 29.69-65.97 63.58-74.57 7.72-1.96 12.11-2.43 22.55-2.43 14.19 0 23.76 1.57 45.7 7.51 27.82 7.54 40.69 8.04 62.15 2.44 46.09-12.02 56.99-13.06 76.78-7.32 28.88 8.37 46.67 28.21 55.47 61.87 4.21 16.13 5.68 26.79 5.68 41.28v13.51l-7.25-.57c-3.99-.31-8.89-1.26-10.89-2.11-6.7-2.84-21.53-4.08-48.36-4.03-28.14.04-51.83 1.66-59.3 4.05-7.23 2.31-52.73 3.9-69.7 2.44M635 638.88c0-2.2-9.04-14.64-15.3-21.06-11.73-12.02-31.84-24.11-48.14-28.94-3.88-1.15-7.18-2.2-7.32-2.33-.15-.14.86-2.72 2.24-5.74 1.58-3.45 2.75-8.24 3.15-12.9l.63-7.41 43.62-.08c35.69-.07 45.67-.4 54.88-1.79 6.2-.94 11.94-1.96 12.75-2.27 2.06-.79 1.94 2.77-.52 16.2-5.62 30.65-14.23 45.67-35.3 61.55-7.56 5.7-10.69 7.1-10.69 4.77m-259.63-2.76c-3.83-2.69-10.01-8.17-13.72-12.18-12.56-13.57-21.28-36.07-22.39-57.8-.5-9.81-.43-10.33 1.35-9.79 10.49 3.19 41.83 4.91 81.39 4.46l27.5-.31.09 8c.09 7.94 1.51 12.55 5.13 16.69 1.34 1.53 1.09 1.78-2.87 2.78-28.96 7.31-54.61 25.83-66.9 48.29l-2.61 4.76Zm93.02-54.03c-4.03-2.45-7.22-9.13-8.02-16.81l-.64-6.1 3.89-1.99c12.02-6.13 23.67-26.35 33.83-58.69 5.71-18.18 8.25-22.29 13.03-21.09 3.34.83 6.23 6.7 13.2 26.89 10.29 29.79 17.32 42.03 28.85 50.26 5.63 4.02 6.47 5.02 6.46 7.78-.02 3.98-2.18 12.2-4.29 16.27-2.85 5.5-12.83 7.48-13.52 2.67-.47-3.35-5.73-7.28-9.75-7.28-2.48 0-4.46.93-7.18 3.36-4.95 4.44-9.41 6.64-13.45 6.64-3.93 0-14.52-4.84-17.2-7.86-3.9-4.38-14.05-1.14-15.25 4.86-.51 2.57-1.05 3-3.73 3-1.71-.01-4.52-.86-6.23-1.91m-31.97 120.53c-7.04-3.28-8.91-7.31-8.06-17.33.76-9 2.19-11.91 7.79-15.91 7.65-5.46 10.61-6.6 15.17-5.83 5.23.89 113.11.89 118.34.01 3.4-.58 4.62-.17 9.86 3.26 3.29 2.15 7.56 5.58 9.48 7.61 3.45 3.63 3.5 3.81 3.5 12.38 0 10.02-1.34 12.91-7.31 15.81-4.57 2.23-16.26 2.98-22.05 1.42-2.36-.64-5.85-2.6-7.75-4.35-3.29-3.05-3.39-3.33-2.19-6.47.67-1.74 1.26-3.02.92-3.94-.96-2.59-9.16-2.5-43.05-2.59-37.81-.1-41.49.03-42.46 1.57-.76 1.21-.73 2.58.11 4.81 1.06 2.81.93 3.37-1.28 5.58-6.67 6.67-21.21 8.53-31.02 3.97m283.23-131.37c-.93-9.83-.77-32.59.35-49.25 2.11-31.48 1.99-30.71 5.39-35.19 1.71-2.26 3.56-4.72 4.1-5.46 1.66-2.24-.78-4.81-4.89-5.16-2.91-.25-3.59-.67-3.22-2 .26-.93.78-6.31 1.16-11.95.37-5.64 1.07-10.5 1.54-10.79.48-.3 3.05-.8 5.7-1.11 4.45-.53 5.08-.32 8 2.6 5.38 5.38 7.22 13.51 7.22 31.94 0 8.62-.46 19.33-1.02 23.8-1.4 11.15-8.16 38.12-12.35 49.25-3.29 8.75-9.32 20.07-10.7 20.07-.35 0-.93-3.04-1.28-6.75m-420.81 3c-4.74-5.65-8.42-15.56-13.82-37.2-7.72-30.93-8.29-35.01-7.75-55.84.64-24.9 2.45-30.21 10.3-30.21 3.53 0 3.62.11 8 9.48 2.6 5.58 4.43 10.94 4.43 13 0 3.49-.04 3.52-4.38 3.52-6.63 0-7.55 1.87-3.81 7.74 1.67 2.62 3.73 6.56 4.57 8.76 3.17 8.29 7.47 82.5 4.77 82.5-.46 0-1.5-.79-2.31-1.75"/><path fill="#fedb00" d="M295.85 753.31c-13.47-10.79-39.52-37.54-49.27-50.61-30.87-41.34-50.21-85.99-58.57-135.2-8.79-51.67-5.83-103.16 8.56-149.27 13.86-44.43 36.1-84.11 65.92-117.58l8.77-9.85 3.91 8.31c2.15 4.57 5.72 10.72 7.95 13.67l4.05 5.36-5.39 5.68c-23.41 24.64-45.64 62.66-57.14 97.68-9.21 28.04-12.68 49.75-13.35 83.5-.71 35.5 2.17 58.59 11.2 89.97 11.98 41.61 36.23 84.38 65.23 115.03 8.1 8.57 9.06 9.98 9.72 14.43.41 2.71 2.43 11.82 4.51 20.25s3.43 15.32 3.01 15.32-4.52-3.01-9.11-6.69m420.47 1.18c1.14-3.73 2.59-11.07 5.16-25.98l2.56-14.89 5.78-6.06c8.17-8.57 15.75-18.28 24.59-31.46 33.57-50.05 49.63-102.87 49.73-163.54.08-51.13-12.83-98.65-38.25-140.74-11.58-19.18-24.58-36.31-36.18-47.66l-5.46-5.34 3.42-5.66c3-4.98 8.33-19.66 8.33-22.96 0-2.56 2.17-.85 10.87 8.55C768.1 321.7 784.21 345 798.91 374c18.1 35.7 28.49 71.67 32.18 111.34 2.33 25.05.12 63.54-5.18 90.16-12.85 64.56-48.68 127.8-95.47 168.52-14.95 13-14.88 12.95-14.12 10.47"/></svg>